<?xml version="1.0" encoding="UTF-8"?>
<svg id="Ebene_2" data-name="Ebene 2" xmlns="http://www.w3.org/2000/svg" xmlns:xlink="http://www.w3.org/1999/xlink" viewBox="0 0 324.4 245.96">
  <defs>
    <style>
      .cls-1, .cls-2 {
        fill: none;
      }

      .cls-1, .cls-3 {
        stroke-width: 0px;
      }

      .cls-4, .cls-5, .cls-6 {
        fill: #009640;
      }

      .cls-7 {
        fill: #45277c;
      }

      .cls-2 {
        stroke: #45277c;
        stroke-linecap: round;
        stroke-linejoin: round;
        stroke-width: 5px;
      }

      .cls-5 {
        letter-spacing: -.18em;
      }

      .cls-6 {
        letter-spacing: -.19em;
      }

      .cls-3 {
        fill: url(#Unbenannter_Verlauf_2);
      }

      .cls-8 {
        font-family: Gruppo-Regular, Gruppo;
        font-size: 36.47px;
      }
    </style>
    <radialGradient id="Unbenannter_Verlauf_2" data-name="Unbenannter Verlauf 2" cx="131.8" cy="97.15" fx="131.8" fy="97.15" r="93.16" gradientUnits="userSpaceOnUse">
      <stop offset="0" stop-color="#5cb130"/>
      <stop offset=".24" stop-color="#51a930"/>
      <stop offset=".66" stop-color="#339533"/>
      <stop offset="1" stop-color="#178236"/>
    </radialGradient>
  </defs>
  <g id="Ebene_1-2" data-name="Ebene 1">
    <path class="cls-3" d="m218.89,88.72c-4.49-26.45-18.53-50.7-38.68-69.86-5-4.86-11.26-9.66-17.34-12.24-2.77-1.25-5.08-2.05-6.74-2.74l-.94.61c-.42,14.8-.6,29.71-.35,44.64.27,15.98-.25,33.05.23,49.39,8.47-3.5,16.44-9.38,22.85-16.16,2.4-2.61,5.15-5.95,6.8-8.98,1.7-2.28,2.24-6.86,3.96-8.84.12,3.41-1.34,7.23-2.61,10.46-4.98,12.54-16.92,21.02-28.72,27.79-.63.46-1.4.53-1.74,1.15-.25,2.16-.03,4.94-.1,7.19.18,14.87-.24,29.23.26,44.05,17.74-10.46,32.49-24.2,42.91-43.3.92-1.9,1.65-3.74,2.05-5.38.22-.52.56-.44.59.19-4.3,25.33-23.73,44.06-45.07,56.7-3.22,12.68-10.58,18.09-23.86,17.68-13.22,1.36-30.06-4.03-41.19-9.19C26.32,131.44,38.58,39.01,108.44,11.58c.88-.43.52.22.82,1.4.17,1.05.55,2.94.86,4.37.21.99,1.27,1.54,2.2,1.12.87-.39,1.92-.86,2.86-1.28,4.01-1.89,17.04-7.63,24.61-10.99,1.54-.69,1.17-2.97-.51-3.14-8.46-.88-23.43-2.44-29.48-3.04-1.35-.14-2.46,1.05-2.24,2.39.33,2.06.77,4.63,1.01,6.26.13.37.03.46-.5.66-9.86,3.51-19.22,8.51-27.61,14.86-57.4,42.69-47.06,130.01,16.69,160.87,12.17,5.95,26.52,9.94,40.04,9.15,20.73.73,34.7-1.44,57.49-17.91,26.47-19.13,28.82-57.73,24.26-87.28l-.05-.28Z"/>
    <text class="cls-8" transform="translate(13.46 228.91)"><tspan class="cls-4" x="0" y="0">Ec</tspan><tspan class="cls-6" x="43.34" y="0">o</tspan><tspan class="cls-5" x="58.41" y="0">T</tspan><tspan class="cls-4" x="75.66" y="0">ech</tspan><tspan class="cls-7" x="137.27" y="0">Solutions</tspan></text>
    <g>
      <path class="cls-2" d="m132.57,22.33c-6.37,0-11.53,5.16-11.53,11.53,0,.86.1,1.7.28,2.5-2.22-1.44-4.86-2.28-7.7-2.28-7.84,0-14.19,6.35-14.19,14.19,0,1.57.27,3.08.74,4.49-8.1,1.43-14.26,8.5-14.26,17.01,0,4.69,1.87,8.94,4.9,12.05-.52-.04-1.05-.08-1.58-.08-10.77,0-19.51,8.73-19.51,19.51s8.01,18.74,18.15,19.44c-4.04,3.25-6.63,8.23-6.63,13.81,0,9.8,7.94,17.74,17.74,17.74,4.12,0,7.91-1.42,10.92-3.78-.89,2.12-1.39,4.44-1.39,6.88,0,9.8,7.94,17.74,17.74,17.74s17.74-7.94,17.74-17.74l.11-121.48c0-6.37-5.16-11.53-11.53-11.53Z"/>
      <path class="cls-2" d="m103.19,87.06c-2.98,0-5.79-.76-8.24-2.09-5.39-2.93-9.05-8.64-9.05-15.21"/>
      <path class="cls-2" d="m104,113.99c-3.58,4.14-8.87,6.77-14.77,6.77-10.77,0-19.51-8.73-19.51-19.51"/>
      <path class="cls-2" d="m113.45,144.76c-3.21,4.53-8.5,7.48-14.47,7.48-9.8,0-17.74-7.94-17.74-17.74"/>
      <path class="cls-2" d="m126.01,41.35s.03.05.04.07"/>
      <path class="cls-2" d="m119.14,61.34c-1.7.72-3.56,1.11-5.52,1.11-7.84,0-14.19-6.35-14.19-14.19s6.35-14.19,14.19-14.19c5.33,0,9.97,2.93,12.39,7.27"/>
      <path class="cls-2" d="m121.27,36.19c-.15-.75-.23-1.53-.23-2.32,0-6.37,5.16-11.53,11.53-11.53s11.53,5.16,11.53,11.53"/>
      <path class="cls-2" d="m115.1,102.23c-.06.59-.1,1.19-.1,1.8,0,7.25,4.69,13.14,10.48,13.14s10.48-5.88,10.48-13.14c0-.91-.07-1.79-.21-2.65"/>
      <path class="cls-2" d="m111.28,87.16c-3.06,1.16-5.23,4.11-5.23,7.58,0,4.47,3.63,8.1,8.11,8.1.29,0,.57-.01.85-.04"/>
      <path class="cls-2" d="m133.92,68.65c-.36,6.89-3.67,12.93-8.6,16.69"/>
      <path class="cls-2" d="m133.95,67.39c0,.42-.01.84-.03,1.26"/>
      <path class="cls-2" d="m123.45,131.52c-1.04,1.75-1.63,3.78-1.63,5.95,0,6.52,5.36,11.81,11.97,11.81,1.36,0,2.66-.22,3.87-.63"/>
    </g>
    <ellipse class="cls-1" cx="150.57" cy="103.53" rx="105.08" ry="102.09"/>
  </g>
</svg>