<?xml version="1.0" encoding="UTF-8"?>
<svg id="Ebene_2" data-name="Ebene 2" xmlns="http://www.w3.org/2000/svg" xmlns:xlink="http://www.w3.org/1999/xlink" viewBox="0 0 230.57 193.7">
  <defs>
    <style>
      .cls-1 {
        fill: url(#Unbenannter_Verlauf_16-3);
      }

      .cls-1, .cls-2, .cls-3 {
        stroke-width: 0px;
      }

      .cls-4 {
        fill: url(#Unbenannter_Verlauf_16);
        stroke: #ffde00;
      }

      .cls-4, .cls-5 {
        stroke-width: 1.09px;
      }

      .cls-4, .cls-5, .cls-6, .cls-7 {
        stroke-miterlimit: 10;
      }

      .cls-5 {
        fill: url(#Unbenannter_Verlauf_16-2);
      }

      .cls-5, .cls-7 {
        stroke: #1d1d1b;
      }

      .cls-8 {
        font-family: BrushScriptMT, 'Brush Script MT';
        font-size: 47.77px;
      }

      .cls-8, .cls-2 {
        fill: #1d1d1b;
      }

      .cls-9 {
        letter-spacing: -.01em;
      }

      .cls-6 {
        fill: url(#Orange_Gelb);
        stroke: #ffed00;
        stroke-width: .54px;
      }

      .cls-7 {
        fill: none;
        stroke-width: 4.34px;
      }

      .cls-3 {
        fill: #9c8134;
      }
    </style>
    <radialGradient id="Unbenannter_Verlauf_16" data-name="Unbenannter Verlauf 16" cx="117.29" cy="34.37" fx="117.29" fy="34.37" r="30.83" gradientUnits="userSpaceOnUse">
      <stop offset="0" stop-color="#ffef26"/>
      <stop offset=".02" stop-color="#fee921"/>
      <stop offset=".1" stop-color="#fdd70e"/>
      <stop offset=".19" stop-color="#fdcb03"/>
      <stop offset=".28" stop-color="#fdc800"/>
      <stop offset=".67" stop-color="#f18f34"/>
      <stop offset=".89" stop-color="#e95f32"/>
      <stop offset="1" stop-color="#e3312d"/>
    </radialGradient>
    <linearGradient id="Orange_Gelb" data-name="Orange, Gelb" x1="115.29" y1="75.21" x2="119.3" y2="75.21" gradientUnits="userSpaceOnUse">
      <stop offset="0" stop-color="#ffef26"/>
      <stop offset=".02" stop-color="#fee921"/>
      <stop offset=".1" stop-color="#fdd70e"/>
      <stop offset=".19" stop-color="#fdcb03"/>
      <stop offset=".28" stop-color="#fdc800"/>
      <stop offset=".67" stop-color="#f18f34"/>
      <stop offset=".89" stop-color="#e95f32"/>
      <stop offset="1" stop-color="#e3312d"/>
    </linearGradient>
    <radialGradient id="Unbenannter_Verlauf_16-2" data-name="Unbenannter Verlauf 16" cy="90.52" fy="90.52" r="17.89" xlink:href="#Unbenannter_Verlauf_16"/>
    <radialGradient id="Unbenannter_Verlauf_16-3" data-name="Unbenannter Verlauf 16" cy="85.1" fy="85.1" r="17.71" xlink:href="#Unbenannter_Verlauf_16"/>
  </defs>
  <g id="Ebene_1-2" data-name="Ebene 1">
    <line class="cls-3" x1="102.46" y1="31.03" x2="102.49" y2="18.2"/>
    <line class="cls-3" x1="142.61" y1="14.43" x2="138.07" y2="9.89"/>
    <path class="cls-4" d="m96.96,46.57c-4.45-4.89-7.17-11.39-7.17-18.52,0-15.19,12.31-27.5,27.5-27.5s27.51,12.31,27.51,27.5c0,10.29-5.65,19.26-14.01,23.97-2.96,2.43-6,5.04-7.13,6.36-3.97,4.67-4.78,6.67-4.78,6.67l-1.59,3.15-1.61-3.15s-.81-2-4.78-6.67c-1.14-1.33-4.21-3.97-7.18-6.41-2.53-1.44-4.82-3.27-6.76-5.41"/>
    <path class="cls-2" d="m147.58,36.99v51.95c0,2.72-1.72,4.73-3.15,5.94-1.64,1.38-3.91,2.59-6.75,3.6-5.49,1.95-12.72,3.02-20.38,3.02s-14.9-1.07-20.38-3.02c-2.84-1.01-5.11-2.22-6.75-3.6-1.44-1.21-3.15-3.22-3.15-5.94v-51.95c1.14,3.87,3.02,7.5,5.57,10.69v41.26c0,.84,1.65,2.67,6.2,4.29,4.9,1.74,11.48,2.7,18.52,2.7s13.61-.96,18.52-2.7c4.55-1.62,6.2-3.45,6.2-4.29v-41.26c2.55-3.2,4.43-6.82,5.57-10.69Z"/>
    <circle class="cls-7" cx="159.03" cy="66.44" r="12.5"/>
    <path class="cls-6" d="m115.29,76.26c0-1.55.9-4.38,2.01-4.38s2.01,2.83,2.01,4.38-.91,2.29-2.02,2.29-1.99-.74-1.99-2.29Z"/>
    <path class="cls-5" d="m142.01,85.1v3.84c0,.84-1.65,2.67-6.2,4.29-4.9,1.74-11.48,2.7-18.52,2.7s-13.61-.96-18.52-2.7c-4.55-1.62-6.2-3.45-6.2-4.29v-3.84c0,2.21,11.07,4,24.72,4s24.72-1.79,24.72-4Z"/>
    <path class="cls-1" d="m142.01,85.1c0,2.21-11.07,4-24.72,4s-24.72-1.79-24.72-4,11.07-4,24.72-4,24.72,1.79,24.72,4Z"/>
    <text class="cls-8" transform="translate(0 147.08)"><tspan x="0" y="0">Ca</tspan><tspan class="cls-9" x="48.24" y="0">f</tspan><tspan x="60.56" y="0">e Del Sol</tspan></text>
  </g>
</svg>