<?xml version="1.0" encoding="UTF-8"?>
<svg id="Ebene_2" data-name="Ebene 2" xmlns="http://www.w3.org/2000/svg" viewBox="0 0 1145.43 730.99">
  <defs>
    <style>
      .cls-1 {
        fill: #ffde00;
      }

      .cls-1, .cls-2 {
        stroke: #1d1d1b;
        stroke-miterlimit: 10;
      }

      .cls-2 {
        fill: #1d1d1b;
      }

      .cls-3, .cls-4, .cls-5 {
        stroke-width: 0px;
      }

      .cls-4 {
        fill: #fff;
      }

      .cls-5 {
        fill: #ffed00;
      }
    </style>
  </defs>
  <g id="Ebene_2-2" data-name="Ebene 2">
    <path class="cls-1" d="m691.2,22.86c-105.75-33.02-131.69,42.99-283.33,0-39.06-11.07-104.2-16.44-179.38-18.31-.33,6.06-.51,12.16-.51,18.31,0,175.71,135,318.15,301.54,318.15S823.81,206.05,830.75,36.83c-61.63-1.51-112.84-5.64-139.55-13.97Z"/>
    <path class="cls-2" d="m1139.6,144.71c-22.68-47.49-111.21-52.5-197.73-11.18-14.93,7.13-28.57,16.31-40.83,26.66,17.29-48.28,26.78-100.76,26.78-155.64h-32.67c-12.12,230.93-171.26,413.71-365.79,413.71S175.7,235.48,163.58,4.55h-32.67c0,238.02,178.39,430.97,398.45,430.97,117.4,0,222.93-54.92,295.85-142.29.31.45.66.83,1.06,1.11,13.77,9.66,111.21,52.5,197.73,11.18,86.52-41.32,138.27-113.32,115.59-160.81Zm-122.24,146.88c-72.5,34.63-146.69,30.43-165.7-9.37-2.66-5.57-4.1-11.55-4.41-17.81,17.19-24.57,32.01-51.19,44.08-79.47,15.74-14.01,35.11-26.94,57.19-37.49,72.5-34.63,146.69-30.43,165.7,9.37,19.01,39.8-24.36,100.13-96.86,134.76Z"/>
    <path class="cls-5" d="m529.52,353.35c6.04,11.63,6.09,29.19,0,40.81-6.08-11.62-6.05-29.18,0-40.81h0Z"/>
    <path class="cls-5" d="m765.71,241.22c11.81,3.28,23.48,14.88,26.72,26.73-11.83-3.24-23.45-14.91-26.72-26.73h0Z"/>
    <path class="cls-5" d="m302.78,246.98c-1.83,10.37-11.21,19.81-21.6,21.6,1.8-10.39,11.23-19.77,21.6-21.6h0Z"/>
    <path class="cls-5" d="m181.98,4.55c10.4-6.04,26.21-6.09,36.61,0-10.39,6.08-26.2,6.04-36.61,0h0Z"/>
    <path class="cls-5" d="m845.11,38.71c10.4-6.04,26.21-6.08,36.61,0-10.39,6.08-26.2,6.04-36.61,0h0Z"/>
  </g>
  <g id="Ebene_5" data-name="Ebene 5">
    <g>
      <path class="cls-3" d="m78.82,562.45c-13.22,1-21.44,9.19-28.91,17.21-14.49,15.56-24.85,33.87-30.26,54.53-1.43,5.45-1.83,11.58-.96,17.13,1.91,12.2,13.28,18.03,26.54,14.04,13.06-3.93,24.17-11.5,31.7-22.58,11.47-16.88,21.33-34.84,32.42-51.99,10.97-16.96,24.02-32.71,45.29-35.73,14.76-2.1,29.68,1.06,40.07,13.8,3.15,3.86,6.33,8.61-.25,12.72-.61.38-1.55,1.03-1.54,1.53.4,14.53-12.67,22.65-16.75,35.13-3.71,11.36-9.04,22.2-12.66,33.58-1.3,4.08.31,9.09.6,13.67,4.48-1.73,10.37-2.23,13.17-5.42,10.53-12.01,20.08-24.89,29.92-37.5,1.32-1.69,2.2-3.71,3.88-6.61-3.91,1.31-6.79,2.98-9.69,3.01-2.01.02-4.35-1.95-5.86-3.64-.39-.43,1.48-3.59,2.92-4.72,1.48-1.16,3.88-2.2,5.59-1.86,11.93,2.36,14.56-6.95,18.6-14.4,14.49-26.74,28.65-53.66,43.61-80.13,2.17-3.84,8.25-8.14,12.17-7.83,9.98.79,15.37,7.24,16.2,15.61,1.52,15.28-5.99,27.7-13.39,39.87-11.26,18.55-25.97,34.05-44.12,47.06,7.23-.99,14.47-1.97,21.67-2.95,1.07,7.76-1.04,10.89-7.79,11.52-3.52.33-7.19.84-10.59.2-8-1.5-12.66,1.69-15.54,8.93-3.92,9.85-7.44,19.63-5.31,30.55,1.93,9.93,8.15,13.16,17.36,8.98,16.3-7.39,25.28-21.97,34.34-35.91,8-12.31,13.26-26.35,20.87-38.95,11.33-18.77,25.89-34.3,49.3-37.13,18.86-2.28,31.27,11.17,26.5,29.48-5.8,22.26-17.87,39.87-41.73,46.55-9.77,2.73-18.89,2.15-28.5-6.5-1.29,9.44-3.46,17.16-3.15,24.78.57,13.71,11.03,20.06,24.68,16.77,15.89-3.82,25.82-14.61,34.32-27.49,1.26-1.91,4.13-2.76,6.25-4.1.65,2.52,2.41,5.36,1.78,7.49-5.11,17.11-28.06,34.1-45.9,33.05-8.97-.53-18.11-2.83-26.58-5.92-8.12-2.96-11.52-10.58-12.76-18.94-.36-2.42-.76-4.83-1.28-8.11-7.61,8.44-13.7,17.13-21.69,23.44-6.34,5.02-14.72,8.75-22.7,10.11-9.49,1.61-15.21-3.95-18.44-13.64-.29-.87-1.03-1.58-1.77-2.66-8.72,20.83-17.3,41.16-25.7,61.56-1.85,4.49-4.19,4.84-8.14,2.47-6.94-4.16-9.04-11.07-5.53-18.58,4.28-9.14,8.34-18.38,12.6-27.79-5.58,1.78-10.74,4.5-16.06,4.84-5.23.33-10.61-1.74-15.39-4.32,7.25,0,14.71,1.09,21.68-.3,7.12-1.42,12.57-6.52,15.18-13.96-9.42,9.66-20.67,15.27-33.59,9.95-9.9-4.08-12.95-14.45-10.7-25.68-7.34,7.74-14.48,16.36-22.76,23.7-7.88,6.99-16.31,5.67-23.01-2.08-2.91-3.36-6.49-6.46-8.29-10.36-1.81-3.92-1.8-8.68-2.45-12.31-9.49,7.71-18.69,15.74-28.45,23.02-16.85,12.55-46.45,5.4-54.6-7.41C1.07,654.68-.06,645.28,0,637.18c.13-16.67,7.36-31.58,16.2-45.25,9.59-14.84,21.64-27.48,38.33-35.07,14.52-6.6,39.71-.15,40.47,16.38.47,10.13-7.74,29.2-17.05,33.5-4.54,2.1-10.38,1.61-15.65,1.81-1.31.05-2.7-1.72-3.79-2.47,11.66-13.03,23.32-24.47,20.3-43.64Zm26.52,92.04c1.95,4.77,3.28,8.02,4.62,11.28,2.78-1.3,5.86-2.2,8.28-3.98,14.69-10.84,23.24-26.72,32.99-41.45,9.19-13.9,16.83-28.81,25.67-42.97,3.17-5.08.73-8.59-2.28-11.19-2.4-2.07-7.63-4.07-9.63-2.86-8.43,5.08-17.56,10.18-23.74,17.53-8.87,10.55-16.62,22.48-22.59,34.89-5.95,12.38-9.1,26.1-13.31,38.75Zm249.94-84.62c-1.18-6.41-3.92-8.59-9.28-6.49-3.2,1.25-6.37,2.97-9.05,5.11-15.18,12.11-25.71,27.7-33.88,45.12-1.98,4.22-.78,6.57,3.12,7.16,3.51.53,7.58.6,10.8-.65,13.71-5.32,21.2-17.07,28.1-29,3.92-6.78,6.82-14.14,10.18-21.24Zm-114.52,23.59c.61.43,1.22.85,1.83,1.28,19.11-16.14,33.56-35.66,41.83-59.38,1.48-4.24.64-9.27.87-13.94-1-.26-2-.51-3-.77-13.84,24.27-27.69,48.54-41.53,72.81Z"/>
      <path class="cls-3" d="m503.16,667.26c3.82-2.45,8.1-4.4,11.39-7.42,15.74-14.46,27.75-31.46,35.63-51.49,6.65-16.91,16.77-31.79,31.23-43.09,12.48-9.74,26.1-15.87,42.44-8.88,9.27,3.96,12.76,12,12.16,20.54-1.65,23.51-22.28,53.11-50.16,54.36-6.53.29-13.18-2.3-20.73-3.74-3.95,7.15-4.25,16.65-2.77,25.95,1.68,10.49,13.64,15.28,27.78,11.83,16-3.91,28.19-13.88,36.86-27.02,9.29-14.07,16.83-29.34,24.49-44.42,13.6-26.77,27.7-53.17,47.09-76.36,1.43-1.71,3.59-2.79,5.17-4.41,4.91-5.04,10.05-8.46,17.16-3.84,6.44,4.17,8.31,10.27,5.72,18.95-6.9,23.12-19.31,43.14-34.32,61.82-8.95,11.13-18.36,21.53-30.32,29.72-3.32,2.27-4.78,8.14-5.79,12.65-2.01,8.97-3.7,18.1-4.39,27.25-.49,6.55,3.09,8.15,9.67,6.63,14.46-3.33,21.86-14.07,28.1-26,1.66-3.18,2.59-7.76,6.99-5.34,1.82,1,2.83,6.42,1.88,8.98-4.25,11.44-12.98,19.41-23.24,25.46-12.27,7.24-24.62,6.72-35.21-3.11-3.11-2.89-4.2-8.25-5.45-12.69-.78-2.78-.15-5.96-.15-8.8-7.95,6.87-15.7,14.07-23.98,20.6-15.29,12.05-41.41,12.22-57.08.81-6.83-4.98-10.68-14.7-10.3-24.93-8.03,8.71-15.51,19.39-25.4,26.92-13.88,10.58-27.85,8.55-34.18-7.59-2.08-5.31-.33-12.11-.33-17.86-5.61,6.79-11.12,14.6-17.82,21.19-4.26,4.19-9.94,7.75-15.63,9.54-11.51,3.61-27.02-14.67-24.95-30.03,4.62-34.21,19.21-62.46,48.43-81.66,9.96-6.55,21.57-10.96,34.29-5.38,3.81,1.67,8.27,2.21,12.48,2.42,1.47.07,3.54-2.12,4.55-3.76,8.29-13.41,16.53-26.86,24.49-40.47,3.08-5.27,6.75-8.31,12.74-5.25,4.8,2.46,6.14,10.86,2.91,16.11-8.64,14.02-17.82,27.72-25.94,42.04-14.69,25.9-27.88,52.57-36.65,81.11-1.64,5.35-.92,11.42-1.28,17.16.81.51,1.63,1.01,2.44,1.52Zm-60.06-11.91c.08,1.46.14,2.96.26,4.46.62,7.64,3.01,8.81,9.34,4.54,1.03-.69,1.83-1.7,2.79-2.5,16.22-13.29,25.48-31.78,36.41-48.95,7.09-11.14,12.79-23.14,19.77-34.35,2.49-4,4.69-7.16,1.22-11.29-3.61-4.31-8.23-6.17-13.36-3.23-6.01,3.45-12.65,6.62-17.2,11.58-8.37,9.13-16.51,18.82-22.74,29.45-9.01,15.37-15.15,32.12-16.5,50.29Zm135.31-32.09c5.88-3.76,12.2-6.99,17.56-11.38,12.36-10.12,19.55-23.86,24.65-38.63.97-2.81-.8-6.57-1.31-9.89-3.29.58-7.1.29-9.8,1.88-18.44,10.86-29.5,27.97-38.5,46.63-3.18,6.59-1.15,9.46,7.4,11.39Zm138-100.24c-18.25,22.83-35.65,45.97-42.24,75.2,20.15-21.65,36.21-45.64,42.24-75.2Z"/>
      <path class="cls-3" d="m958.51,643.1c-12.31,10.95-24.32,18.91-40.56,17.41-2.31-.21-5.3,1.66-7.24,3.39-13.4,12-28.6,13.9-44.92,7.78-11.62-4.36-14.08-14.65-14.9-25.59-.09-1.22-.22-2.44-.35-4-.95.53-1.79.71-2.13,1.22-5.44,8.2-13.93,11.17-22.87,13.45-1.11.28-2.55.71-3.09,1.54-10.78,16.64-26.31,19.53-44.24,15.16-7.37-1.8-15.5-2.62-21.77-6.39-14.66-8.82-12-23.24-4-34.42,7.1-9.92,21.25-9.85,32.22-1.15,6.41,5.08,13.34,9.51,21.67,15.38,0-13.05-3.56-22.91-7.38-32.77-4.45-11.5-10.52-22.41-9.39-35.62,1.29-15.02,15.26-27.57,30.54-25.57,7.09.92,14.17,2.56,20.98,4.75,8.03,2.59,11.92,9.39,11.57,17.92-.3,7.4-4.17,12.23-11.05,14.18-3.08.87-6.61.15-9.54.15,1.35-7.77,3.04-14.24,3.31-20.78.1-2.25-2.86-5.93-5.21-6.76-9.11-3.22-21.81,5.64-21.63,15.32.13,7.12,1.22,14.44,3.26,21.25,4.95,16.49,15.05,31.42,13.95,50.42,17.26-8.26,25.67-22.35,32.36-37.64,8.03-18.35,17.27-35.68,34.5-47.28,7.44-5.01,14.62-11.29,24.46-4.48.85.59,3.81-1.55,5.62-2.68,12.65-7.93,29.92-3.28,32.24,9.45,1.36,7.46,1.5,15.7-.18,23.05-5.39,23.61-16.48,44.62-32.4,63.19,11.27-.28,16.97-3.32,25.53-11.31,13.86-12.95,19.71-30.25,27.56-46.7,13.98-29.28,28.9-58.15,52.03-81.73,5.1-5.2,10.57-8.63,17.94-3.74,5.89,3.91,7.4,9.75,5.26,18.57-4.5,18.51-13.82,34.85-24.92,49.77-10.19,13.7-21.88,26.65-34.66,37.98-14.34,12.71-14.95,28.71-15.03,45.26-.02,4.52,2.7,7.19,8.86,5.61,15.18-3.89,22.74-15.15,29.76-27.49,1.16-2.03,3.97-3.12,6.01-4.65.89,2.6,3.1,5.59,2.45,7.72-3.95,12.96-13.7,21.34-24.94,27.71-11.82,6.69-23.88,6.07-33.83-3.7-3.22-3.16-4.34-8.7-5.7-13.36-.79-2.72-.14-5.86-.14-9.82Zm-24.94-80.41c-1.6.49-2.77.52-3.46,1.11-19.68,16.9-31.17,38.24-32.95,64.07-.42,6.05,2.07,12.7,4.67,18.43,2.28,5.03,6.29,3.87,9.23-.41,10.55-15.34,18.64-31.85,23.56-49.81,3-10.96,5.04-21.97-1.06-33.38Zm-30.62,14.54c-2.42,2.26-3.7,3.05-4.43,4.19-5.1,7.97-10.27,15.9-15.07,24.06-9.41,16-15.3,33.04-14.62,51.91.28,7.64,3.95,11.83,11.23,9.96,7.34-1.89,14.06-6.13,20.8-9.22-23.16-28.04-9.42-53.62,2.09-80.9Zm-97.98,76.92c-8.73-5.7-16.97-11.19-25.35-16.46-1.49-.93-3.89-1.75-5.33-1.2-6.34,2.41-11.6,6.07-12.03,13.77-.42,7.55,2.53,13,9.7,16,11.81,4.94,26.97-.63,33.01-12.11Zm236.41-132.31c-21.58,24.67-36.47,53.2-49.16,83.01,23.4-23.55,41.89-50,49.16-83.01Z"/>
      <path class="cls-3" d="m506.27,653.5c12.47-49.05,38.96-91.28,66.71-133.28-.53,2.65-.42,5.69-1.72,7.9-6.18,10.53-13.02,20.67-19.1,31.25-14.65,25.46-30.49,50.34-39.59,78.6-1.71,5.31-4.18,10.37-6.3,15.55Z"/>
      <path class="cls-3" d="m680.54,610.76c9.26-12.15,20.52-25.91,30.64-40.47,10.29-14.8,17.97-30.98,19.82-50.85,5.3,26.33-27.27,78.06-50.46,91.32Z"/>
      <path class="cls-3" d="m1055.1,520.97c7.22,21.65-27.15,77.34-53.81,91.52,26.07-26.59,48.2-54.66,53.81-91.52Z"/>
      <path class="cls-3" d="m25.91,659.36c-5.29-9.53-4.06-19.28-1.23-28.6,6.52-21.46,18.56-39.69,34.77-55.18.82-.78,1.95-1.24,3.4-1.49-19.53,25.15-39.21,50.1-36.95,85.28Z"/>
      <path class="cls-3" d="m372.8,574.34c3.44,35.2-29.4,69.87-55.14,60.54,33.67-2.94,51.23-30.34,55.14-60.54Z"/>
      <path class="cls-3" d="m640.16,577.26c1.25,34.71-29.02,66.05-55.58,58.28,34.86-4.69,49.28-27.61,55.58-58.28Z"/>
      <path class="cls-3" d="m298.01,519.65c9.72,15.29-9.23,57.3-36.93,75.99,9.18-12.21,18.77-22.82,25.8-34.91,7.17-12.33,13.8-25.6,11.13-41.09Z"/>
      <path class="cls-3" d="m298.71,676.62c23.63,6.45,53.55-3.67,65.94-33.42,1.89,12.66-12.85,26.69-23.55,32.21-13.75,7.1-28.07,10.34-42.39,1.21Z"/>
      <path class="cls-3" d="m199.05,588.47c-.49,2.78-.19,6.06-1.6,8.25-12.28,19.16-23.09,39-29.91,60.81-.18.57-.96.95-1.45,1.43-.65-.26-1.3-.52-1.95-.77,4.8-12.17,8.99-24.62,14.56-36.42,5.44-11.53,12.28-22.4,18.5-33.55.62.09,1.23.17,1.85.26Z"/>
      <path class="cls-3" d="m933.43,644.86c15.57-22.82,28.62-46.42,24.91-77.03,9.49,19.54-3.69,59.05-24.91,77.03Z"/>
      <path class="cls-3" d="m819.37,566.57c-5.3,9.9-5.33,18.33-2.4,26.82,3.33,9.63,7.17,19.08,10.29,28.77,1.69,5.24,2.34,10.82,2.21,16.49-5.89-17.73-12.09-35.37-17.51-53.24-2.26-7.43.38-13.07,7.41-18.84Z"/>
      <path class="cls-3" d="m622.3,662.33c-16.67,20.18-42.43,26.54-59.73,12.31,23.67,8.48,42.18.36,59.73-12.31Z"/>
      <path class="cls-3" d="m976.68,678.42c25.34-2.32,42.49-12.49,49.56-35.91,6.13,16.54-25.13,42.97-49.56,35.91Z"/>
      <path class="cls-3" d="m702.45,642.94c3.4,20.83-31.38,43.41-48.75,35.08,24.05-1.13,40.25-12.39,48.75-35.08Z"/>
      <path class="cls-3" d="m20.01,674.64c22.05,9.43,38.4.38,54.2-11.09-6.91,16-40.16,26.37-54.2,11.09Z"/>
      <path class="cls-3" d="m174.47,727.18c11.99.74,12.34.24,16.41-11.92,3.36-10.05,7.46-19.85,12.71-29.25-4.6,14.08-9.09,28.21-13.96,42.19-.49,1.4-3.52,3.03-5.02,2.74-3.5-.67-6.78-2.44-10.15-3.77Z"/>
      <path class="cls-3" d="m216.85,675.76c18.89,9.47,31.85-1.14,45.1-13.33-9.61,20.67-35.34,26.24-45.1,13.33Z"/>
      <path class="cls-3" d="m65.99,613.5c20.27-1.66,27.35-15.44,31.34-33.09,3,10.54-6.06,27.22-14.32,31.98-4.73,2.72-10.59,5.68-17.02,1.11Z"/>
      <path class="cls-3" d="m95.71,671.15c12.14,9.79,20.97,10.4,39.71-8.77-2.04,7.7-12.06,17.65-19.61,18.68-7.91,1.07-15.15-.28-20.1-9.91Z"/>
      <path class="cls-3" d="m487.47,674.57c13.09,4.06,20.78,6.6,39.05-8.19-2.29,6.08-13.31,15.43-19.15,15.1-6.92-.39-15.27,2.24-19.91-6.91Z"/>
      <path class="cls-3" d="m433.49,672.61c15.08,9.85,25.33,2.76,35.5-6.79-2.9,8.67-11.39,14.81-20.47,15.42-5.86.4-11.33-.05-15.03-8.63Z"/>
      <path class="cls-3" d="m873.77,676.51c13.1,3.49,24.4.69,35.31-6.57-7.32,12.67-24.33,15.93-35.31,6.57Z"/>
      <path class="cls-3" d="m666.45,621.41c-3.82,12.82-7.63,25.64-11.03,37.08-1.77-7.94,2.96-27.74,11.03-37.08Z"/>
      <path class="cls-3" d="m855.75,569.97c1.42,5.39,2.9,12.45-1.91,18.91-4.18,5.61-9.7,8.4-15.68,6.08,4.15-2.86,10.03-5.17,13.05-9.47,3.04-4.33,3.24-10.64,4.54-15.52Z"/>
      <path class="cls-3" d="m787.91,679.34c10.3-2.62,20.36-5.17,30.39-7.71-8.13,9.81-18.91,9.58-30.39,7.71Z"/>
      <path class="cls-3" d="m303.43,659.81c-6.77-7.81-7.39-19.14,0-28.23v28.23Z"/>
      <path class="cls-3" d="m978.47,652.96c2.94-10.65,5.87-21.29,8.81-31.94,1.05.23,2.1.46,3.15.68-1.53,5.21-2.99,10.44-4.61,15.61-1.7,5.4-3.56,10.75-5.35,16.12-.67-.16-1.34-.32-2-.48Z"/>
      <path class="cls-3" d="m569.67,658.3c-6.3-6.94-6.3-17.86,0-25.21v25.21Z"/>
      <path class="cls-3" d="m262.71,610.03c2.21,10.35-3.53,13.14-21.86,11.57,6.48-4.64,19.51,2.74,21.86-11.57Z"/>
      <path class="cls-3" d="m224.47,661.23c-3.64-11.5-1.03-22.67,3.97-33.63-1.31,11.1-2.62,22.19-3.97,33.63Z"/>
      <path class="cls-3" d="m925.44,664.33c7.2-1.94,13.81-3.72,20.57-5.54-4.66,6.41-12.14,8.41-20.57,5.54Z"/>
      <path class="cls-4" d="m1018.17,563.21l-2.25-1.23c-3.2,5.56-6.4,11.12-9.6,16.68.8.45,1.6.89,2.4,1.34,3.15-5.6,6.29-11.19,9.44-16.79Z"/>
      <path class="cls-3" d="m111.13,662.29c-1.61-36.54,31.48-86.31,50.8-93.2-26.74,24.9-41.21,56.59-50.8,93.2Z"/>
      <path class="cls-3" d="m342.57,567.84c-12.51,17.44-23.89,33.32-35.27,49.2,5.22-20.3,19.42-34.18,35.27-49.2Z"/>
      <path class="cls-3" d="m447.53,660.07c-5.07-24.7,28.08-83.71,49.89-90.6-26.16,24.8-41.33,55.49-49.89,90.6Z"/>
      <path class="cls-3" d="m613.78,567.34c-16.65,13.67-28.39,30.94-37.56,51.16-3.74-12.1,22.11-46.09,37.56-51.16Z"/>
      <path class="cls-3" d="m904.92,644.38c-11.87-14.81,3.99-57.63,19.74-70.17-11.8,21.59-24,43.08-19.74,70.17Z"/>
      <path class="cls-3" d="m883.08,612.47c-3.58,16.56-7.15,33.11-10.45,48.39-3.49-16.39,3.02-32.43,10.45-48.39Z"/>
      <path class="cls-3" d="m768.28,659.74c-5.48-5.71-4.28-13.87,2.8-18.66-.88,5.87-1.9,12.68-2.8,18.66Z"/>
      <path class="cls-3" d="m1018.17,563.21c-3.15,5.6-6.29,11.19-9.44,16.79-.8-.45-1.6-.89-2.4-1.34,3.2-5.56,6.4-11.12,9.6-16.68l2.25,1.23Z"/>
    </g>
  </g>
</svg>