<?xml version="1.0" encoding="UTF-8"?>
<svg id="Ebene_2" data-name="Ebene 2" xmlns="http://www.w3.org/2000/svg" viewBox="0 0 243.25 140.2">
  <defs>
    <style>
      .cls-1 {
        fill: none;
        stroke: #1d1d1b;
        stroke-miterlimit: 10;
      }

      .cls-2, .cls-3, .cls-4 {
        stroke-width: 0px;
      }

      .cls-3 {
        fill: #1d1d1b;
      }

      .cls-4 {
        fill: #fff;
      }
    </style>
  </defs>
  <g id="Ebene_1-2" data-name="Ebene 1">
    <g>
      <path class="cls-4" d="m95.98,129.13c0-1.95,0-3.89,0-5.84,0,1.95,0,3.89,0,5.84,0,1.98,0,3.97,0,5.95,0-1.98,0-3.97,0-5.95Z"/>
      <path class="cls-4" d="m44.55,135.2c-.62,0-1.25,0-1.87,0,.62,0,1.25,0,1.87,0,.64,0,1.28,0,1.92,0-.64,0-1.28,0-1.92,0Z"/>
      <path class="cls-4" d="m69.22,126.51c0-2.17,0-4.33,0-6.5,0,2.17,0,4.33,0,6.5,0,2.24,0,4.48,0,6.72,0-2.24,0-4.48,0-6.72Z"/>
      <path class="cls-4" d="m92.55,119.96c0,3.06,0,6.12,0,9.17v9.23-9.23c0-3.06,0-6.12,0-9.17Z"/>
      <path class="cls-4" d="m122.05,119.87c0,3.09,0,6.19,0,9.28s0,6.23,0,9.34c0-3.11,0-6.23,0-9.34s0-6.19,0-9.28Z"/>
      <path class="cls-4" d="m170.58,124.98c0,.53,0,1.06,0,1.58,0,.53,0,1.06,0,1.58,0-.53,0-1.06,0-1.58,0-.53,0-1.06,0-1.58Z"/>
      <path class="cls-1" d="m105.78,124.01c-.52-2.82-2.89-4.96-5.78-5.09-2.12-.1-4.25-.06-6.37-.07-.88,0-1.08.22-1.08,1.12,0,3.06,0,6.12,0,9.17v9.23s0,.04,0,.05c.01.81.24,1.04,1.05,1.04,1.85,0,3.7,0,5.55,0,3.86,0,6.74-2.84,6.75-6.67,0-2.49,0-4.99,0-7.48,0-.43-.04-.87-.12-1.3Zm-3.29,8.94c0,1.81-1.23,3.06-3.04,3.1-.84.02-1.68.01-2.53,0-.71,0-.94-.25-.94-.96,0-1.98,0-3.97,0-5.95,0-1.95,0-3.89,0-5.84,0-.86.19-1.04,1.07-1.05.79,0,1.57-.01,2.36,0,1.86.04,3.07,1.27,3.07,3.11,0,2.53,0,5.06,0,7.59Z"/>
      <path class="cls-1" d="m48.78,127.29c-.71-2.61-1.44-5.21-2.15-7.82-.14-.52-.48-.79-1.04-.79-.7,0-1.39,0-2.09,0-.56,0-.89.28-1.04.79-.15.5-.28,1.01-.42,1.52-1.14,4.16-2.29,8.33-3.43,12.49-.43,1.58-.86,3.15-1.29,4.73-.22.81-.05,1.04.78,1.04.53,0,1.06,0,1.59,0,.62,0,.95-.26,1.11-.84.21-.75.42-1.5.63-2.26.19-.7.51-.95,1.25-.96.62,0,1.25,0,1.87,0,.64,0,1.28,0,1.92,0,.64,0,.98.26,1.15.87.22.77.43,1.54.64,2.31.17.61.51.87,1.15.87.59,0,1.17,0,1.76,0,.59,0,.79-.26.64-.82-1.01-3.71-2.02-7.42-3.03-11.14Zm-3.13,4.52c-.73.01-1.46.01-2.19,0-.53,0-.74-.26-.61-.76.49-1.86,1-3.71,1.51-5.56.03-.09.1-.17.21-.35.09.21.16.33.19.45.5,1.8,1,3.6,1.49,5.4.15.55-.05.81-.6.82Z"/>
      <path class="cls-1" d="m154.14,127.56c-1.04-.39-2.09-.77-3.1-1.22-.7-.31-1.1-.89-1.14-1.67-.07-1.33.75-2.35,2.14-2.59,1.24-.22,2.31.2,3.22,1.03.4.37.78.41,1.23.11.44-.3.89-.57,1.33-.86.56-.37.63-.81.19-1.31-1.65-1.87-4.76-3.04-7.44-2.1-4.11,1.45-5.02,5.5-3.31,8.43.83,1.41,2.23,2.11,3.7,2.68,1.2.47,2.42.92,3.61,1.43.6.25.99.74,1.15,1.38.38,1.57-.51,2.98-2.18,3.32-1.38.28-2.65-.04-3.76-.91-.61-.48-.73-.5-1.4-.09-.4.25-.81.49-1.21.75-.64.41-.69.81-.16,1.37,1.57,1.69,3.59,2.28,5.42,2.38,1.81,0,3.3-.52,4.46-1.43,2.87-2.25,3.2-6.29.72-8.73-.97-.96-2.19-1.49-3.45-1.96Z"/>
      <path class="cls-3" d="m78.81,130.84c-1.52,0-3.04,0-4.56,0-1.61,0-1.63-.02-1.61-1.61.01-.76.26-1,1.03-1.01.9,0,1.8,0,2.69,0,.68,0,.92-.24.93-.92,0-.49,0-.98,0-1.47-.01-.73-.26-.97-1.01-.98-.71,0-1.43,0-2.14,0-1.49,0-1.51-.02-1.5-1.5,0-.92.18-1.09,1.09-1.1,1.7,0,3.41,0,5.11,0,.7,0,.96-.27.97-.96,0-.44,0-.87,0-1.31,0-.9-.23-1.13-1.14-1.13-2.77,0-5.53,0-8.3,0-.96,0-1.15.19-1.15,1.16,0,2.17,0,4.33,0,6.5,0,2.24,0,4.48,0,6.72,0,.8.21.99,1.02.99,2.88,0,5.75,0,8.63,0,.67,0,.93-.25.94-.92.01-.49,0-.98,0-1.47-.01-.72-.28-.98-1-.99Z"/>
      <path class="cls-2" d="m109.12,126.52c0-2.19,0-4.37,0-6.56,0,2.19,0,4.37,0,6.56,0,2.24,0,4.48,0,6.72,0-2.24,0-4.48,0-6.72Z"/>
      <path class="cls-3" d="m109.12,133.24c0,.73.22.98.87.98,2.95,0,5.9,0,8.85,0,.59,0,.84-.23.86-.82.02-.51.01-1.02,0-1.53,0-.8-.24-1.02-1.07-1.03-1.5,0-3.01-.03-4.51,0-1.61.04-1.64-.2-1.61-1.63.01-.71.29-.99,1.01-.99.93,0,1.87,0,2.8,0,.57,0,.84-.25.86-.82.02-.51.01-1.02,0-1.53,0-.76-.26-1.01-1.03-1.02-.9,0-1.8,0-2.69,0-.7,0-.94-.26-.96-.96,0-.15,0-.29,0-.44,0-.99.2-1.19,1.18-1.19,1.61,0,3.23,0,4.84,0,.99,0,1.17-.18,1.17-1.19,0-.36,0-.73,0-1.09,0-.9-.22-1.12-1.15-1.12-2.77,0-5.53,0-8.3,0-.93,0-1.14.21-1.14,1.12,0,2.19,0,4.37,0,6.56,0,2.24,0,4.48,0,6.72Z"/>
      <path class="cls-2" d="m23.29,129.12c0-1.09-.01-2.18,0-3.28,0,1.09,0,2.18,0,3.28,0,1.11-.01,2.21,0,3.32,0-1.11,0-2.21,0-3.32Z"/>
      <path class="cls-1" d="m35.23,135.72c-.53-.28-1.08-.53-1.63-.78-.38-.18-.72-.11-.99.21-.86,1.06-2.02,1.25-3.27,1.11-1.54-.17-2.62-1.39-2.63-2.93,0-2.8,0-5.61,0-8.41,0-1.07.49-1.89,1.38-2.46,1.29-.84,3.35-.59,4.39.54.38.42.76.51,1.26.25.47-.25.95-.47,1.42-.71.58-.31.68-.73.32-1.25-.09-.14-.19-.27-.3-.39-1.7-1.95-3.87-2.54-6.38-2.22-3.04.4-5.45,3.02-5.5,6.07,0,.36,0,.73-.01,1.09,0,1.09,0,2.18,0,3.28,0,1.11-.01,2.21,0,3.32,0,.37,0,.74.01,1.11.02,1.39.49,2.64,1.37,3.72,1.63,2.02,3.83,2.67,6.32,2.38,1.88-.22,3.42-1.13,4.51-2.7.37-.53.28-.92-.27-1.22Z"/>
      <path class="cls-3" d="m167.92,118.86c-2.65-.13-5.34,1.78-6.03,4.36-.53,1.98-.45,4.03-.15,6.02.4,2.66,2.73,4.68,5.35,4.96,2.82.29,5.37-1.23,6.46-3.81.53-1.25.45-2.56.51-3.87-.06-.89-.05-1.79-.19-2.66-.44-2.79-2.92-4.84-5.96-4.99Zm2.66,9.28c-.03,1.41-1.16,2.61-2.53,2.68-1.56.08-2.88-.93-2.99-2.42-.09-1.23-.09-2.48,0-3.71.1-1.48,1.43-2.52,2.92-2.44,1.46.08,2.58,1.25,2.61,2.72,0,.53,0,1.06,0,1.58,0,.53,0,1.06,0,1.58Z"/>
      <path class="cls-2" d="m54.3,119.9c0,3.08,0,6.16,0,9.23,0,1.56,0,3.11,0,4.67,0-1.56,0-3.11,0-4.67,0-3.08,0-6.16,0-9.23Z"/>
      <path class="cls-1" d="m64.89,118.85c-3.19,0-6.38,0-9.57,0-.81,0-1.03.23-1.03,1.05,0,3.08,0,6.16,0,9.23,0,1.56,0,3.11,0,4.67,0,1.56,0,3.11,0,4.67,0,.73.26.98.99.98.44,0,.88,0,1.32,0,.85,0,1.12-.26,1.12-1.1,0-2.19,0-4.37,0-6.56,0-.75.22-.96.99-.96,1.06,0,2.13,0,3.19,0,.91,0,1.1-.19,1.1-1.07,0-.42,0-.84,0-1.26,0-.85-.22-1.07-1.06-1.08-1.12,0-2.24,0-3.35,0-.64,0-.86-.23-.87-.85,0-1.07,0-2.15,0-3.22,0-.96.15-1.11,1.11-1.11,2.03,0,4.07,0,6.1,0,.77,0,1.02-.26,1.03-1.01,0-.44,0-.87,0-1.31,0-.83-.24-1.08-1.08-1.08Z"/>
      <path class="cls-1" d="m188.96,137.25c0-1.08-.12-1.2-1.19-1.2-2.02,0-4.03,0-6.05,0-.74,0-.99-.25-1.01-.98,0-.15,0-.29,0-.44,0-4.92,0-9.83,0-14.75,0-.83-.19-1.02-1.04-1.03-.4,0-.81,0-1.21,0-.96,0-1.15.19-1.15,1.16,0,3.04,0,6.08,0,9.12,0,3.02,0,6.05,0,9.07,0,1.07.18,1.25,1.23,1.25.84,0,1.69,0,2.53,0,2.31,0,4.62,0,6.93,0,.7,0,.96-.26.96-.95,0-.42,0-.84,0-1.26Z"/>
      <path class="cls-1" d="m132.68,136.05c-2.01,0-4.03,0-6.04,0-.99,0-1.16-.17-1.16-1.13,0-5.01,0-10.01,0-15.02,0-.81-.22-1.03-1.04-1.04-.46,0-.92,0-1.37,0-.79.01-1.01.23-1.01,1.01,0,3.09,0,6.19,0,9.28s0,6.23,0,9.34c0,.69.27.97.95.97,3.24,0,6.48,0,9.73,0,.7,0,.98-.29.99-1,0-.46,0-.91,0-1.37,0-.8-.24-1.04-1.04-1.04Z"/>
      <path class="cls-2" d="m167.83,136.05c1.61,0,3.22,0,4.84,0-1.61,0-3.22,0-4.84,0-1.67,0-3.33,0-5,0,1.67,0,3.33,0,5,0Z"/>
      <path class="cls-3" d="m172.67,136.05c-1.61,0-3.22,0-4.84,0-1.67,0-3.33,0-5,0-.59,0-.84.25-.85.82-.01.58-.01,1.17,0,1.75.01.55.29.83.86.83,3.31,0,6.63,0,9.94,0,.57,0,.86-.31.86-.9,0-.51,0-1.02,0-1.53,0-.73-.24-.98-.98-.98Z"/>
      <path class="cls-2" d="m74.52,136.05c1.43,0,2.85,0,4.28,0-1.43,0-2.85,0-4.28,0-1.48,0-2.96,0-4.45,0,1.48,0,2.96,0,4.45,0Z"/>
      <path class="cls-3" d="m78.8,136.05c-1.43,0-2.85,0-4.28,0-1.48,0-2.96,0-4.45,0-.56,0-.81.23-.84.78-.03.58-.02,1.16,0,1.75.02.63.28.87.94.87,2.89,0,5.78,0,8.67,0,.67,0,.96-.29.97-.97.01-.47,0-.95,0-1.42,0-.76-.26-1.02-1.01-1.02Z"/>
      <path class="cls-2" d="m114.48,136.05c1.43,0,2.85,0,4.28,0-1.43,0-2.85,0-4.28,0-1.48,0-2.96,0-4.45,0,1.48,0,2.96,0,4.45,0Z"/>
      <path class="cls-3" d="m118.76,136.05c-1.43,0-2.85,0-4.28,0-1.48,0-2.96,0-4.45,0-.62,0-.88.24-.9.84-.02.56-.02,1.13,0,1.69.02.6.29.87.89.87,2.93,0,5.86,0,8.78,0,.62,0,.89-.28.91-.91.02-.53.01-1.05,0-1.58-.02-.67-.26-.91-.95-.91Z"/>
    </g>
    <path class="cls-3" d="m241.57,25.83c-42.87,6.64-85.97,11.75-129.21,15.26,42.87-6.66,85.97-11.74,129.21-15.26h0Z"/>
    <path class="cls-3" d="m95.33,35.95c35.69-6.7,71.66-11.87,107.8-15.45-35.69,6.71-71.66,11.86-107.8,15.45h0Z"/>
    <path class="cls-3" d="m195.12,21.65c-24.52-4.21-48.91-9.17-73.25-14.36-8.11-1.73-16.21-3.52-24.3-5.33l.79-.18c-7.33,5.56-15.46,11.68-22.94,17.14-2.56,1.89-5.13,3.77-7.72,5.62,2.42-2.07,4.86-4.11,7.31-6.14,7.25-6.03,15.19-12.53,22.51-18.39,8.28,1.66,16.56,3.33,24.82,5.07,24.35,5.12,48.65,10.48,72.78,16.57h0Z"/>
    <path class="cls-3" d="m205.09,9.72c.88,3.57,1.68,7.16,2.4,10.76-3.81.73-8.45,1.52-12.29,2.19,2.45-3.8,6.4-9.83,8.94-13.59,0,0,1.14,1.76,1.14,1.76-11.83,2.1-24.15,4.14-36.08,5.31,12.48-3.28,25.65-5.74,38.37-8.05,0,0-1.55,2.26-1.55,2.26-1.97,2.9-5.98,8.67-8.01,11.52,0,0-.94-1.5-.94-1.5,2.82-.33,6.79-.76,9.58-1.03,0,0-.53.72-.53.72-.41-3.45-.77-6.9-1.04-10.36h0Z"/>
    <path class="cls-3" d="m0,43c24.43-4.42,50.62-10.12,75.02-14.25,10.55,3.13,30.73,9.14,41.27,12.32-.14.67-.75,3.1-.91,3.82,0,0-.28,1.17-.28,1.17l-1.16-.34c-8.98-2.76-31.69-9.17-38.84-11.65-17.69,2.86-35.39,5.66-53.1,8.36,0,0-17.72,2.65-17.72,2.65-1.46-.66-2.87-1.45-4.27-2.09h0Zm0,0c1.32.65,3.2,1.35,4.23,1.88,0,0,17.61-3.3,17.61-3.3,17.7-3.27,35.41-6.44,53.14-9.54,9.93,2.86,29.68,8.59,39.6,11.49,0,0-1.44.83-1.44.83l.66-2.77.78,1.36c-10.03-3.03-30.15-9.19-40.16-12.27-21.48,4.02-51.02,8.21-74.43,12.31h0Z"/>
    <path class="cls-3" d="m100.13,35.26c-8.79-2.22-17.88-4.99-26.54-7.63,0,0,.46.03.46.03-12.45,2.49-26.01,5.04-38.19,7.11C24.29,37.63,11.64,40.64,0,43c8.42-2.7,17.9-5.43,26.46-7.85,0,0,8.87-2.44,8.87-2.44,3.21-.65,6.42-1.22,9.64-1.83,9.21-1.74,19.45-3.51,28.75-5.05,0,0,.25-.04.25-.04l.21.07c7.61,2.59,18.32,6.58,25.96,9.39h0Z"/>
    <path class="cls-3" d="m36.57,33.56c5.15-5.21,11.08-10.05,16.85-14.59,0,0,.49-.39.49-.39l.58.21c6.59,2.35,13.11,4.82,19.39,7.95-6.87-1.44-13.52-3.54-20.14-5.79,0,0,1.08-.18,1.08-.18-5.81,4.5-11.94,9.05-18.25,12.79h0Z"/>
    <path class="cls-3" d="m9.5,79.33c-1.57-8.74-1.58-17.74,0-26.48,1.58,8.74,1.57,17.74,0,26.48h0Z"/>
    <path class="cls-3" d="m19.35,89.83c-.83-15.82-1.08-31.66-1.13-47.5,0,0,0-.95,0-.95,4.83-.84,9.67-1.57,14.5-2.34,13.07-1.98,27.48-4.1,40.56-5.48-12.85,2.83-27.28,5.42-40.32,7.67-4.5.74-9,1.53-13.5,2.22l1.03-1.13c-.05,15.84-.3,31.68-1.13,47.5h0Z"/>
    <path class="cls-3" d="m80.26,43.92c1,9.74,1.19,19.81,1.12,29.6-.02,3.29-.1,6.58-.23,9.87,0,0-.87-.89-.87-.89,2.14.1,4.27.25,6.41.41,2.14.18,4.27.36,6.4.63-2.14.22-4.28.35-6.42.48-2.41.12-4.83.23-7.25.27l-.04-.9c-.45-13.1-.4-26.4.89-39.46h0Z"/>
    <path class="cls-3" d="m93.08,38.41c1.13,15.01,1.24,30.07,1.07,45.12,0,0-1.12-1.07-1.12-1.07,4.85-.15,9.7-.27,14.56-.28l-.63.66c.16-3.71.36-7.43.66-11.14.32,3.91.53,7.83.69,11.74l-.66.06c-5.2.49-10.42.83-15.63,1.17,0,0-.02-1.15-.02-1.15-.17-15.05-.06-30.11,1.07-45.12h0Z"/>
    <path class="cls-3" d="m190.13,85.44c-1.57-15.98-1.59-32.11,0-48.09,1.59,15.98,1.57,32.11,0,48.09h0Z"/>
    <path class="cls-3" d="m143.11,84.37c-1.57-13.96-1.58-28.08,0-42.04,1.59,13.96,1.57,28.08,0,42.04h0Z"/>
    <path class="cls-3" d="m114.26,44.63c19.75-2.93,41.5-5.69,61.4-8.14,20.49-2.47,41-4.81,61.54-6.93l-.58.29,4.34-4.59.5,1.39-9.59-1.48c-9.59-1.47-19.17-3.03-28.74-4.68,12.68,1.32,25.87,2.93,38.56,4.51,0,0,1.56.19,1.56.19l-1.06,1.19-4.2,4.72-.22.25-.35.04c-40.8,5.1-82.16,9.75-123.14,13.23h0Z"/>
    <path class="cls-3" d="m107.62,71.7c31.69-.68,66.44-1.24,97.94-1.56,0,0,32.65-.28,32.65-.28h1.08s0,1.07,0,1.07l.04,16.9v1.15s-1.16-.04-1.16-.04c-42.01-1.55-88.49-3.55-130.57-5.54,0,0-.55-.03-.55-.03v-.54c.2-13.39.31-26.78.58-40.16.26,13.39.37,26.78.57,40.16l-.55-.57,32.66.99c8.15.23,24.51.77,32.66,1.07,19.21.69,46.36,1.6,65.3,2.39,0,0-1.16,1.11-1.16,1.11l.04-16.9,1.08,1.07-32.65.1c-31.45.04-66.32-.09-97.95-.42h0Z"/>
    <path class="cls-3" d="m80.26,71.32c9.05-1.64,18.36-1.49,27.36.38-4.55.8-9.11.86-13.7.79-4.59-.11-9.13-.23-13.67-1.17h0Z"/>
    <path class="cls-3" d="m228.09,31.54c1.57,18.72,1.59,37.57,0,56.3-1.59-18.72-1.57-37.57,0-56.3h0Z"/>
    <path class="cls-3" d="m238.21,87.84c.16,4.59.26,9.19.36,13.78v.38s-.39-.02-.39-.02c-10.9-.47-21.79-1.16-32.69-1.75-32.09-1.91-66.33-4.28-97.77-7.04-4.89.68-9.76,1.41-14.65,2.05-6.6-.88-13.21-1.71-19.81-2.65,6.39.48,13.85,1.11,19.73,1.64,4.83-.88,9.67-1.66,14.5-2.5,21.25,1.1,44.34,2.66,65.49,4.19,21.76,1.58,43.51,3.33,65.24,5.34,0,0-.39.36-.39.36.1-4.59.21-9.19.36-13.78h0Z"/>
    <path class="cls-3" d="m50.07,82.77c-.42-11.92-.64-24.37-.81-36.33,0,0-.01-.7-.01-.7l.72-.1c5.29-.76,15.94-2.23,21.25-2.92,0,0,21.27-2.76,21.27-2.76l-.27,2.2-19.33-7.57,1.5-1.02c-.11,14.52-.31,32.4-.66,46.83-.14,5.2-.25,10.41-.44,15.61-.36-10.41-.59-20.81-.74-31.22-.16-8.59-.33-24.25-.37-32.83,4.2,1.62,21.13,8.17,25.13,9.72-13.92,1.69-33.26,4.09-47.12,5.57,0,0,.71-.81.71-.81-.16,11.97-.4,24.4-.81,36.33h0Z"/>
    <path class="cls-3" d="m50.07,46.44c-10.37.2-20.76-1.18-30.72-4.11,10.37-.21,20.76,1.19,30.72,4.11h0Z"/>
    <path class="cls-3" d="m72.84,83.53c-8.44.42-17.2.52-25.62.3,0,0,1.17-1.14,1.17-1.14,0,.66.01,1.32,0,1.98l-1.08-1.14c4.27.25,8.53.52,12.78.93,4.26.39,8.51.85,12.75,1.54-8.92.47-17.81.17-26.72-.23-.03-1.37-.02-2.89,0-4.27,8.92.34,17.88.64,26.72,2.02h0Z"/>
    <path class="cls-3" d="m72.84,86.61c-6.63.3-13.89.48-20.48.4-2.27,0-4.55-.07-6.82-.1l1.17-1.14c0,.66.01,1.32,0,1.98l-1.09-1.14c4.55.25,9.09.52,13.62.93,4.54.39,9.07.86,13.59,1.54-9.48.47-18.93.17-28.4-.22-.03-1.37-.02-2.89,0-4.27,9.48.34,19,.64,28.4,2.02h0Z"/>
    <path class="cls-3" d="m72.84,89.3c-7.16.3-15,.48-22.12.4-2.46,0-4.91-.07-7.37-.1l1.17-1.14v1.98s-1.09-1.14-1.09-1.14c4.91.25,9.82.52,14.72.92,4.9.39,9.8.86,14.69,1.54-10.21.47-20.4.18-30.6-.22,0-1.22,0-3.05,0-4.27,10.22.34,20.46.64,30.6,2.02h0Z"/>
    <path class="cls-3" d="m72.84,92.02c-7.73.3-16.19.48-23.87.41-2.65,0-5.3-.07-7.95-.1l1.16-1.14v1.98s-1.09-1.14-1.09-1.14c5.3.25,10.6.52,15.89.92,5.29.39,10.58.86,15.86,1.54-10.99.47-21.96.18-32.94-.22,0-1.22,0-3.05,0-4.27,11,.34,22.02.63,32.94,2.02h0Z"/>
    <path class="cls-3" d="m4.25,44.99c13.37,1.03,26.93,2.76,40.26,4.4,0,0-7.81,1.14-7.81,1.14-8.94,1.26-17.89,2.4-26.86,3.44-2.99.33-5.98.7-8.97,1l-.37-1.78c7.66-2.07,15.35-4.04,23.09-5.81-7.47,2.68-15.01,5.17-22.58,7.56,0,0-.37-1.78-.37-1.78,8.93-1.34,17.88-2.55,26.84-3.65,2.99-.37,5.97-.75,8.96-1.07v2.09c-10.77-1.63-21.51-3.41-32.18-5.54h0Z"/>
    <path class="cls-3" d="m45.57,86.71c-13.05-.33-26.08-1.26-39.08-2.38,0-1.45-.02-4.74-.03-6.19l1.18.04c13.99.42,28.52.97,42.43,2.26-7.08.3-14.17.35-21.25.34-6.15.01-15-.17-21.24-.31,0,0,1.18-1.15,1.18-1.15l-.02,3.97-1.03-1.12c12.65,1.2,25.29,2.58,37.86,4.53h0Z"/>
  </g>
</svg>