<?xml version="1.0" encoding="UTF-8"?>
<svg id="Ebene_2" data-name="Ebene 2" xmlns="http://www.w3.org/2000/svg" viewBox="0 0 523.74 221.16">
  <defs>
    <style>
      .cls-1 {
        fill: none;
        stroke: #45277c;
        stroke-linecap: round;
        stroke-linejoin: round;
        stroke-width: 3.86px;
      }

      .cls-2 {
        fill: #3aaa35;
      }

      .cls-2, .cls-3 {
        stroke-width: 0px;
      }

      .cls-3 {
        fill: #45277c;
      }
    </style>
  </defs>
  <g id="Ebene_1-2" data-name="Ebene 1">
    <g>
      <path class="cls-2" d="m32.88,216.75c-.51-.07-1.09-.1-1.75-.1H4.48v-13.33h26.64c.58,0,1.07-.11,1.47-.33.39-.22.85-.69.85-1.7,0-.79-.38-1.39-1.04-1.65-.42-.17-.93-.26-1.51-.26H4.48v-12.13h26.58c.66,0,1.24-.03,1.75-.1.92-.12,1.49-.8,1.49-1.77,0-1.06-.56-1.77-1.49-1.9-.51-.07-1.09-.1-1.75-.1H2.07c-.41,0-1.5,0-1.86.82-.14.32-.2.79-.2,1.57v32.78c0,.7.07,1.08.23,1.37.37.63,1.18.63,1.49.63h29.69c.65-.02,1.18-.06,1.6-.12.32-.04,1.36-.3,1.36-1.88,0-.97-.57-1.65-1.49-1.77Z"/>
      <path class="cls-2" d="m57.07,197.43c1.28,0,2.6.12,3.93.35,1.34.24,2.59.53,3.72.88,1.11.34,2,.68,2.68,1.02,1.63.68,2.79-.14,2.79-1.49,0-.76-.41-1.39-1.15-1.78-1.91-.99-3.93-1.68-6.01-2.07-2.05-.38-4.05-.57-5.96-.57-3.48,0-6.51.4-9,1.19-2.6.82-4.61,2.25-5.98,4.25-1.36,1.99-2.05,4.74-2.05,8.19s.74,6.24,2.21,8.21c1.47,1.96,3.53,3.34,6.13,4.12,2.5.74,5.42,1.12,8.69,1.12,1.91,0,3.91-.19,5.96-.57,2.08-.38,4.1-1.08,6.02-2.07.74-.39,1.14-1.02,1.14-1.77,0-1.04-.7-1.72-1.78-1.72-.31,0-.64.07-1.07.25-.64.32-1.52.65-2.63.99-1.12.35-2.37.64-3.72.88-1.33.23-2.66.35-3.96.35-4.32,0-7.57-.76-9.66-2.25-2.02-1.44-3.01-3.91-3.01-7.53s.95-6.14,2.82-7.64c1.93-1.55,5.26-2.33,9.88-2.33Z"/>
      <path class="cls-2" d="m105.28,196.97c-2.7-2.12-6.91-3.19-12.51-3.19s-9.81,1.07-12.51,3.19c-2.77,2.17-4.17,5.68-4.17,10.44,0,2.72.54,5.11,1.61,7.11,1.1,2.04,2.91,3.64,5.4,4.73,2.41,1.06,5.66,1.6,9.66,1.6s7.25-.54,9.66-1.6c2.48-1.09,4.3-2.68,5.4-4.73,1.07-2,1.61-4.39,1.61-7.11,0-4.75-1.4-8.27-4.17-10.44Zm-12.51,20.22c-2.77,0-5.01-.29-6.66-.87-1.6-.56-2.81-1.3-3.61-2.22-.8-.93-1.35-1.96-1.64-3.08-.3-1.18-.45-2.39-.45-3.61,0-3.63.94-6.22,2.8-7.68,1.92-1.52,5.14-2.29,9.55-2.29s7.62.77,9.55,2.29c1.86,1.47,2.81,4.05,2.81,7.68,0,1.21-.15,2.42-.45,3.61-.28,1.12-.83,2.15-1.63,3.08-.8.92-2.01,1.66-3.61,2.22-1.65.58-3.89.87-6.66.87Z"/>
      <path class="cls-2" d="m141.43,187.17c.92-.09,1.49-.75,1.49-1.75,0-1.54-1.08-1.86-1.41-1.93-.51-.09-1.11-.14-1.76-.14h-36.87c-.57,0-1.14.05-1.72.14-.96.16-1.53.88-1.53,1.93,0,.99.59,1.66,1.54,1.75.51.05,1.08.07,1.7.07h16.23v30.04c0,.72.11,1.37.33,1.95.31.82,1.01,1.29,1.93,1.29,1.01,0,1.73-.49,1.98-1.36.16-.56.24-1.19.24-1.88v-30.04h16.16c.65,0,1.21-.02,1.69-.07Z"/>
      <path class="cls-2" d="m163.58,206.63c.18-.83.28-1.57.28-2.21,0-3.41-1.22-6.08-3.64-7.93-2.34-1.8-5.85-2.71-10.44-2.71-2.92,0-5.61.4-8,1.19-2.48.82-4.47,2.24-5.92,4.23-1.45,1.99-2.19,4.75-2.19,8.21,0,4.2,1.28,7.53,3.81,9.91,2.51,2.36,6.57,3.56,12.08,3.56,2.87,0,5.27-.27,7.15-.81,1.91-.55,3.34-1.13,4.39-1.78,1.36-.85,1.75-1.19,1.83-1.28.45-.31.7-.78.7-1.3,0-.47-.18-.92-.53-1.31-.47-.52-.97-.63-1.31-.63-.28,0-.53.07-.76.22-.44.3-1.15.72-2.1,1.24-.92.51-2.16.97-3.68,1.38-1.51.41-3.44.62-5.72.62-3.81,0-6.72-.71-8.64-2.11-1.69-1.23-2.65-3.56-2.85-6.92l24.16.31c.97,0,1.23-1.16,1.38-1.86Zm-22.46-7.3c2.02-1.26,4.93-1.9,8.66-1.9,2.66,0,4.79.33,6.32.98,1.47.62,2.53,1.44,3.15,2.43.64,1.02.94,2.13.94,3.39v.6h-22.09c.3-2.62,1.29-4.42,3.01-5.5Z"/>
      <path class="cls-2" d="m186.56,197.43c1.28,0,2.6.12,3.93.35,1.34.24,2.59.53,3.72.88,1.11.34,2,.68,2.68,1.02,1.63.68,2.79-.14,2.79-1.49,0-.76-.41-1.39-1.15-1.78-1.91-.99-3.93-1.68-6.01-2.07-2.05-.38-4.05-.57-5.96-.57-3.48,0-6.51.4-9,1.19-2.6.82-4.61,2.25-5.98,4.25-1.36,1.99-2.05,4.74-2.05,8.19s.74,6.24,2.21,8.21c1.47,1.96,3.53,3.34,6.13,4.12,2.5.74,5.42,1.12,8.69,1.12,1.91,0,3.91-.19,5.96-.57,2.08-.38,4.1-1.08,6.02-2.07.74-.39,1.14-1.02,1.14-1.77,0-1.04-.7-1.72-1.78-1.72-.31,0-.64.07-1.07.25-.64.32-1.52.65-2.63.99-1.12.35-2.37.64-3.72.88-1.33.23-2.66.35-3.96.35-4.32,0-7.57-.76-9.66-2.25-2.02-1.44-3.01-3.91-3.01-7.53s.95-6.14,2.82-7.64c1.93-1.55,5.26-2.33,9.88-2.33Z"/>
      <path class="cls-2" d="m231.25,194.94h0c-1.89-.77-4.44-1.16-7.59-1.16-1.1,0-2.39.08-3.82.24-1.44.16-2.89.48-4.3.93-1.45.47-2.75,1.14-3.85,2-.23.18-.44.37-.64.56v-11.04c0-.64-.09-1.24-.26-1.8-.27-.84-.94-1.32-1.83-1.32-.98,0-1.7.5-1.96,1.36-.17.57-.26,1.16-.26,1.75v30.87c0,.64.09,1.25.26,1.82.26.87.98,1.36,1.96,1.36.9,0,1.57-.5,1.84-1.36.17-.57.26-1.18.26-1.81v-14.22c.46-1.41,1.32-2.48,2.62-3.28,1.43-.87,3.06-1.5,4.86-1.86,1.84-.37,3.56-.55,5.13-.55,2.55,0,4.49.33,5.75.98,1.19.61,1.98,1.52,2.41,2.75.46,1.35.7,3.1.7,5.19v10.99c0,.63.08,1.24.24,1.8.25.88.97,1.38,1.99,1.38.9,0,1.57-.5,1.84-1.36.17-.57.26-1.18.26-1.82v-10.99c0-3.06-.42-5.52-1.26-7.33-.88-1.9-2.33-3.27-4.33-4.09Z"/>
      <path class="cls-3" d="m280.13,201.26c-1.91-.67-4.08-1.17-6.45-1.47-2.32-.3-4.76-.52-7.26-.65-2.47-.14-4.87-.29-7.18-.45-2.27-.16-4.34-.43-6.15-.81-1.73-.36-3.11-.91-4.1-1.64-.87-.63-1.29-1.51-1.29-2.68,0-1.75.64-3.07,1.97-4.04,1.44-1.06,3.38-1.82,5.78-2.26,5.2-.95,11.51-.89,17.41.1,3.08.52,5.72,1.23,7.77,2.08.77.44,1.94.27,2.53-.47.33-.41.49-.88.49-1.38,0-.77-.38-1.38-1.02-1.66-1.13-.53-2.72-1.06-4.74-1.55-1.99-.49-4.27-.9-6.77-1.21-4.79-.59-10.05-.64-14.9-.02-2.35.3-4.51.85-6.42,1.63-1.97.8-3.57,1.94-4.75,3.37-1.22,1.48-1.84,3.37-1.84,5.6,0,2.08.64,3.78,1.91,5.05,1.2,1.2,2.83,2.11,4.82,2.7,1.91.56,4.07.97,6.44,1.21,2.32.23,4.76.4,7.25.5,2.45.09,4.86.24,7.15.42,2.25.18,4.32.51,6.13.96,1.72.43,3.09,1.08,4.08,1.92.9.77,1.34,1.83,1.34,3.24,0,1.86-.61,3.28-1.87,4.34-1.34,1.13-3.16,1.95-5.41,2.43-4.74,1.02-10.64.93-16.24.18-2.88-.39-5.48-.85-7.75-1.38-2.25-.53-3.93-1.01-4.96-1.43-.26-.11-.53-.17-.8-.17-1.04,0-1.72.71-1.72,1.81,0,.89.48,1.62,1.38,2.05,1.07.49,2.73,1.01,5.07,1.58,2.27.56,4.92,1.03,7.88,1.42,2.95.38,5.99.58,9.02.58,2.46,0,4.88-.17,7.18-.52,2.33-.35,4.46-.94,6.33-1.76,1.93-.85,3.48-2.03,4.62-3.49,1.17-1.51,1.76-3.4,1.76-5.63s-.63-4.03-1.88-5.42c-1.2-1.33-2.82-2.37-4.81-3.07Z"/>
      <path class="cls-3" d="m321.72,196.97c-2.7-2.12-6.91-3.19-12.51-3.19s-9.81,1.07-12.51,3.19c-2.77,2.17-4.17,5.68-4.17,10.44,0,2.72.54,5.11,1.61,7.11,1.1,2.04,2.91,3.64,5.4,4.73,2.41,1.06,5.66,1.6,9.66,1.6s7.25-.54,9.66-1.6c2.48-1.09,4.3-2.68,5.4-4.73,1.07-2,1.61-4.39,1.61-7.11,0-4.75-1.4-8.27-4.17-10.44Zm-12.51,20.22c-2.77,0-5.01-.29-6.66-.87-1.6-.56-2.81-1.3-3.61-2.22-.8-.93-1.35-1.96-1.64-3.08-.3-1.18-.45-2.39-.45-3.61,0-3.63.94-6.22,2.8-7.68,1.92-1.52,5.14-2.29,9.55-2.29s7.62.77,9.55,2.29c1.86,1.47,2.81,4.05,2.81,7.68,0,1.21-.15,2.42-.45,3.61-.28,1.12-.83,2.15-1.63,3.08-.8.92-2.01,1.66-3.61,2.22-1.65.58-3.89.87-6.66.87Z"/>
      <path class="cls-3" d="m335.35,183.36c-1.46,0-1.89.92-2.01,1.32-.16.54-.24,1.17-.24,1.86v30.93c0,.65.08,1.25.23,1.76.11.39.53,1.29,1.97,1.29.91,0,1.59-.46,1.86-1.26.18-.53.27-1.14.27-1.86v-30.93c0-.63-.07-1.22-.22-1.76-.23-.85-.92-1.36-1.85-1.36Z"/>
      <path class="cls-3" d="m372.57,194.41c-.96,0-1.65.53-1.87,1.41-.13.55-.2,1.14-.2,1.76v15.93c-1.11.78-2.59,1.58-4.4,2.37-1.96.86-4.39,1.29-7.22,1.29-2.56,0-4.54-.28-5.88-.84-1.24-.51-2.07-1.33-2.55-2.5-.52-1.27-.78-3.05-.78-5.27v-10.99c0-.62-.07-1.21-.2-1.77-.22-.9-.93-1.41-1.96-1.41-.94,0-1.64.5-1.9,1.36-.17.57-.26,1.18-.26,1.82v10.99c0,4.24,1.08,7.39,3.21,9.34,2.11,1.94,5.58,2.92,10.32,2.92,2.45,0,4.56-.27,6.27-.8,1.71-.53,3.15-1.21,4.28-2,.38-.27.74-.54,1.07-.81v.17c0,.98.12,1.66.37,2.13.19.37.69.98,1.85.98.9,0,1.57-.48,1.83-1.32.18-.55.26-1.15.26-1.79v-19.82c0-.63-.08-1.23-.24-1.8-.12-.41-.55-1.38-2.02-1.38Z"/>
      <path class="cls-3" d="m399.33,215.19c-1.21.65-2.31,1.16-3.26,1.51-1.81.67-3.82.61-5.36,0-.71-.28-1.27-.83-1.71-1.69-.47-.91-.71-2.34-.71-4.24v-12.57h9.65c1.36,0,1.84-.89,1.84-1.65s-.48-1.65-1.84-1.65h-9.65v-7.02c0-.63-.08-1.52-.73-2-.74-.55-1.87-.63-2.78-.03-.82.53-.82,1.66-.82,2.03v7.02h-1.9c-1.08,0-1.78.65-1.78,1.65s.7,1.65,1.78,1.65h1.9v12.57c0,3.69.89,6.32,2.64,7.84,1.71,1.48,3.85,2.23,6.35,2.23,1.32,0,2.57-.16,3.7-.46,1.14-.31,2.6-.95,4.45-1.97,1.01-.55,1.16-1.36,1.16-1.8,0-1.4-1.37-2.21-2.93-1.42Z"/>
      <path class="cls-3" d="m404.61,186.03c-.5.52-.76,1.18-.76,1.97s.27,1.43.78,1.93c.51.49,1.17.74,1.95.74s1.4-.24,1.94-.72c.56-.5.86-1.17.86-1.95s-.29-1.48-.84-2c-1.1-1.03-2.93-.99-3.94.03Z"/>
      <path class="cls-3" d="m406.62,194.13c-1.41,0-1.82.91-1.94,1.29-.15.52-.23,1.13-.23,1.82v20.39c0,.72.08,1.3.24,1.75.15.42.59,1.14,1.92,1.14,1.43,0,1.84-.86,1.95-1.23.14-.48.21-1.03.21-1.66v-20.45c0-.65-.1-1.25-.29-1.79-.28-.8-.97-1.26-1.87-1.26Z"/>
      <path class="cls-3" d="m443.77,196.97c-2.7-2.12-6.91-3.19-12.51-3.19s-9.8,1.07-12.51,3.19c-2.77,2.17-4.17,5.68-4.17,10.44,0,2.72.54,5.11,1.61,7.11,1.1,2.05,2.91,3.64,5.4,4.73,2.41,1.06,5.66,1.6,9.66,1.6s7.25-.54,9.66-1.6c2.48-1.09,4.3-2.68,5.4-4.73,1.07-1.99,1.62-4.39,1.62-7.11,0-4.75-1.4-8.27-4.17-10.44Zm-12.51,20.22c-2.77,0-5.01-.29-6.66-.87-1.6-.56-2.81-1.3-3.61-2.22-.8-.93-1.35-1.97-1.63-3.08-.3-1.18-.45-2.4-.45-3.61,0-3.63.94-6.22,2.8-7.68,1.92-1.52,5.14-2.29,9.55-2.29s7.62.77,9.55,2.29c1.86,1.47,2.8,4.05,2.8,7.68,0,1.21-.15,2.43-.45,3.61h0c-.28,1.12-.83,2.15-1.63,3.08-.8.92-2.01,1.66-3.61,2.22-1.65.58-3.89.87-6.66.87Z"/>
      <path class="cls-3" d="m479.54,194.94h0c-2.75-1.14-7.07-1.56-12.27-.79-1.72.26-3.41.81-5.04,1.64-1,.51-1.94,1.2-2.8,2.04v-1.07c0-.53-.1-1.01-.3-1.42-.2-.43-.68-.93-1.8-.93-1.2,0-1.7.52-1.92.96-.21.43-.31.9-.31,1.39v20.58c0,.64.1,1.26.28,1.83.28.86,1,1.35,1.98,1.35s1.62-.52,1.85-1.4c.14-.56.22-1.16.22-1.78v-14.22c.46-1.41,1.31-2.49,2.6-3.28,1.41-.87,3.01-1.49,4.77-1.85,1.8-.37,3.52-.55,5.11-.55,2.55,0,4.48.33,5.73.98,1.18.61,1.96,1.51,2.38,2.75.45,1.35.68,3.1.68,5.19v10.99c0,.61.06,1.2.18,1.75.09.43.47,1.43,1.95,1.43.88,0,1.56-.48,1.87-1.31.21-.59.32-1.21.32-1.87v-10.99c0-3.06-.41-5.52-1.22-7.32-.85-1.9-2.29-3.28-4.27-4.09Z"/>
      <path class="cls-3" d="m521.94,208.5h0c-1.11-.99-2.58-1.72-4.35-2.15-1.69-.41-3.57-.68-5.58-.79-1.98-.11-3.96-.18-5.95-.22-1.93-.04-3.73-.17-5.33-.37-1.52-.2-2.74-.56-3.64-1.08-.72-.42-1.06-1.04-1.06-1.94,0-1.1.4-1.9,1.25-2.52.96-.7,2.26-1.21,3.85-1.51,1.66-.32,3.43-.48,5.28-.48,2.69,0,5.19.26,7.42.79,2.19.51,4.18,1.21,5.89,2.07.2.13.44.2.72.2.34,0,.84-.11,1.26-.65.3-.37.45-.81.45-1.38-.07-.69-.42-1.24-1.04-1.59-2.08-1.1-4.41-1.89-6.93-2.37-4.57-.87-9.86-1-14.58-.09-2.23.43-4.09,1.22-5.54,2.35-1.57,1.22-2.36,2.97-2.36,5.2,0,1.87.61,3.35,1.82,4.39,1.11.96,2.58,1.65,4.36,2.05,1.69.38,3.57.62,5.59.71,1.99.09,3.97.15,5.94.19,1.92.04,3.71.18,5.31.4,1.51.21,2.73.61,3.62,1.17.75.47,1.09,1.15,1.09,2.14s-.42,1.75-1.32,2.33c-1.04.67-2.45,1.15-4.18,1.43-1.81.29-3.77.43-5.83.43-2.61,0-5.08-.18-7.33-.53-2.16-.34-4.1-1.09-5.64-2.14-.18-.17-.5-.38-1-.38-.83,0-1.72.5-1.72,1.91,0,.41.14,1.02.79,1.53,1.32,1.02,2.91,1.78,4.73,2.24,1.74.44,3.57.73,5.45.85,1.84.12,3.54.18,5.04.18,2.54,0,4.97-.23,7.23-.68,2.32-.47,4.24-1.25,5.7-2.33,1.6-1.18,2.41-2.8,2.41-4.83,0-1.91-.61-3.42-1.8-4.49Z"/>
    </g>
    <g>
      <path class="cls-1" d="m240.45,15.36c-4.96,0-8.99,4.02-8.99,8.99,0,.67.08,1.32.22,1.95-1.73-1.12-3.79-1.78-6.01-1.78-6.11,0-11.06,4.95-11.06,11.06,0,1.23.21,2.4.58,3.5-6.32,1.12-11.12,6.62-11.12,13.26,0,3.66,1.46,6.97,3.82,9.39-.41-.03-.82-.06-1.23-.06-8.4,0-15.21,6.81-15.21,15.21s6.25,14.61,14.15,15.15c-3.15,2.53-5.16,6.41-5.16,10.77,0,7.63,6.19,13.82,13.82,13.82,3.21,0,6.16-1.11,8.51-2.95-.7,1.65-1.08,3.46-1.08,5.36,0,7.63,6.19,13.82,13.82,13.82s13.82-6.19,13.82-13.82l.08-94.69c0-4.96-4.02-8.99-8.99-8.99Z"/>
      <path class="cls-1" d="m217.56,65.81c-2.33,0-4.51-.59-6.42-1.63-4.2-2.28-7.05-6.73-7.05-11.85"/>
      <path class="cls-1" d="m218.18,86.81c-2.79,3.23-6.91,5.27-11.52,5.27-8.4,0-15.21-6.81-15.21-15.21"/>
      <path class="cls-1" d="m225.55,110.79c-2.5,3.53-6.62,5.83-11.28,5.83-7.63,0-13.82-6.19-13.82-13.82"/>
      <path class="cls-1" d="m235.34,30.18s.02.04.03.05"/>
      <path class="cls-1" d="m229.98,45.76c-1.32.56-2.78.87-4.3.87-6.11,0-11.06-4.95-11.06-11.06s4.95-11.06,11.06-11.06c4.15,0,7.77,2.29,9.66,5.67"/>
      <path class="cls-1" d="m231.65,26.16c-.12-.58-.18-1.19-.18-1.81,0-4.96,4.02-8.99,8.99-8.99s8.99,4.02,8.99,8.99"/>
      <path class="cls-1" d="m226.83,77.63c-.05.46-.08.92-.08,1.4,0,5.65,3.66,10.24,8.16,10.24s8.16-4.58,8.16-10.24c0-.71-.06-1.4-.17-2.06"/>
      <path class="cls-1" d="m224.47,67.66c-1.88.77-3.22,2.74-3.22,5.05,0,2.98,2.23,5.4,4.99,5.4.18,0,.35,0,.52-.03"/>
      <path class="cls-1" d="m241.51,51.46c-.28,5.37-2.86,10.08-6.7,13.01"/>
      <path class="cls-1" d="m241.53,50.48c0,.33,0,.66-.03.98"/>
      <path class="cls-1" d="m232.01,99.32c-.81,1.36-1.27,2.95-1.27,4.64,0,5.08,4.18,9.2,9.33,9.2,1.06,0,2.07-.17,3.02-.49"/>
    </g>
    <path class="cls-2" d="m310.57,24.56c-6.32-6.77-13.8-12.48-22.09-16.62-8.27-4.15-17.32-6.75-26.53-7.61-9.21-.85-18.57-.06-27.49,2.4-8.92,2.45-17.4,6.55-24.84,12.07-7.45,5.5-13.94,12.32-18.98,20.13-5.07,7.79-8.64,16.53-10.62,25.64-.99,4.55-1.53,9.21-1.66,13.87-.08,1.17-.02,2.33.01,3.5l.1,3.51c.06,1.17.24,2.33.36,3.49.15,1.16.22,2.33.43,3.49,1.55,9.24,4.74,18.23,9.46,26.38,8.98,15.62,23.52,27.95,40.5,34.73l-1.53,6.16,18.5-5.33-13.87-13.35-1.51,6.1c-7.35-2.51-14.35-6.18-20.61-10.9-7.09-5.32-13.33-11.89-18.03-19.5-4.74-7.56-8.2-15.99-9.9-24.82-1.68-8.82-1.63-17.99.01-26.88,3.34-17.78,13.61-34.18,28.17-45.09C225.01,4.99,243.7-.29,261.84,1.51c18.13,1.76,35.46,10.54,47.56,24.13,6.08,6.75,10.94,14.57,14.24,23,3.32,8.42,5.02,17.46,4.94,26.47-.09,9-1.82,17.98-5.41,26.19-3.56,8.21-8.71,15.69-14.96,22.05-6.27,6.35-13.54,11.7-21.44,15.73-3.95,2.01-8.03,3.74-12.23,5.03-2.78.84-5.59,1.49-8.4,1.96v-12.83c2.36,1.42,5.11,2.25,8.06,2.25h.02c4.21,0,8.16-1.64,11.14-4.61,2.98-2.98,4.63-6.93,4.63-11.15,0-.5-.02-.99-.07-1.48,1.75.67,3.62,1.01,5.55,1.01h.02c8.69,0,15.76-7.06,15.77-15.75,0-3.49-1.13-6.81-3.18-9.52,7.07-2.14,12.19-8.73,12.2-16.39.01-8.59-6.33-15.74-14.58-16.98,1.3-2.29,1.99-4.88,2-7.57,0-6.79-4.38-12.67-10.69-14.69.11-.69.17-1.38.17-2.08,0-7.17-5.82-13.02-12.99-13.02h-.02c-1.33,0-2.63.2-3.88.6-.26-2.48-1.35-4.77-3.13-6.56-2.06-2.07-4.81-3.21-7.73-3.21h-.01c-2.92,0-5.66,1.13-7.72,3.19-2.07,2.06-3.21,4.81-3.21,7.73l-.04,88.76h-.03v41.12l4.3-.6h0c4.88-.76,9.55-2.09,14.03-3.8,4.49-1.7,8.78-3.8,12.88-6.19,8.18-4.81,15.64-10.78,21.92-17.82,6.3-7.01,11.46-15.08,14.87-23.86,3.4-8.78,5.02-18.2,4.84-27.54-.37-18.73-8.05-36.98-20.71-50.52Zm-49.32,121.93c.04-5.55-.04-11.09-.07-16.64-.18-3.06.44-6.02,1.52-8.84.23-3.28.52-6.55.77-9.82.92-10.7,2.1-22.38,3.16-33,.4-3,1.42-13.99,2.25-21.32-3.93-6.74-5.43-15.57-3.15-23.01,1.48,6.43,2.8,12.74,3.61,19.21.14-1.06.27-1.9.38-2.42,1.35-5.51,5.33-10.07,10.01-13.08-4.94,3.92-8.87,9.57-9.06,15.99l-.11,2.78c0,.19-.02.38-.03.57,5.26-3.18,10.93-5.7,15.05-10.39-1.36,5.1-6.14,8.52-10.53,10.96-1.49.79-3.02,1.46-4.66,1.94-.37,6.34-.86,12.67-1.31,19-.15,1.79-.3,3.62-.46,5.47,5.4-3.88,10.66-8.33,14.28-13.87,3.48-5.58,8.32-14.31,11.67-20.08-1.84,5.21-3.93,10.28-6.32,15.24,2.35-2.08,4.86-4,7.31-5.93,2.81-2.59,4.74-5.84,6.43-9.31-.46,4.58-2.49,9.15-6.02,12.25-2.91,2.6-5.95,5.1-9.22,7.26,0,0-.69.48-.69.48-.14.04-.2.17-.32.22-.21.4-.42.79-.63,1.19-3.95,6.71-10.06,11.82-16.75,15.69-.7,8.14-1.48,16.57-2.3,24.42-.14,1.25-.28,2.49-.41,3.74.3-.49.61-.97.92-1.44,1.66-2.65,3.66-5.1,5.9-7.28-.33-.4-.25-1.01-.16-1.56,1.43-9.81,7.62-15.84,15.58-20.92l.04-.25c.73-5.12,3.44-10.73,9.24-11.14,0,0,1.69-.22,1.69-.22,3.27-.4,6.9-.85,10.16-1.12-3.16.88-6.69,1.76-9.89,2.52,0,0-1.65.39-1.65.39-4.81.71-6.58,5.63-7.06,9.93-.04.36-.12.98-.19,1.42l-.5.33c-5.49,3.83-11.35,8.2-13.98,14.55-.66,1.49-1.29,3.01-1.66,4.59,1.37-1.18,2.8-2.28,4.31-3.25,3.53-2.31,7.36-4.05,11.26-5.57,1.06-.44,2.86-.98,3.82-1.61-.84.81-2.53,1.56-3.56,2.17-4.91,2.68-10.05,5.53-14.37,9.19,1.03.08,2.06.18,3.04.3,1.23.1,2.41-.11,3.68-.39,4.95-1.13,9.68-3.05,14.58-4.52-4.67,3.54-12.98,8.44-19.04,7.58-1.46-.27-3.05-.56-4.48-.95-2.02,2-3.79,4.23-5.16,6.79-2.23,4.12-3.92,8.54-4.64,13.14-.07.6,0,1.39,0,1.98.11,5.54.16,11.08.32,16.62l-2.6.03Z"/>
  </g>
</svg>