<?xml version="1.0" encoding="UTF-8"?>
<svg id="Ebene_2" data-name="Ebene 2" xmlns="http://www.w3.org/2000/svg" viewBox="0 0 258.05 174.25">
  <defs>
    <style>
      .cls-1 {
        fill: #8e6538;
      }

      .cls-1, .cls-2, .cls-3 {
        stroke-width: 0px;
      }

      .cls-2 {
        fill: #fff;
      }

      .cls-3 {
        fill: #fdc800;
      }
    </style>
  </defs>
  <g id="Ebene_1-2" data-name="Ebene 1">
    <rect class="cls-2" width="258.05" height="174.25"/>
    <path class="cls-1" d="m128.54,62.89v11.91c-.23.09-.47.13-.74.13h-.74c-.45.04-.87.08-1.28.1-.4.02-.79.03-1.14.03-4.53,0-8.3-1.39-11.3-4.17-3.01-2.78-4.51-6.59-4.51-11.44,0-5.25,1.66-9.21,4.98-11.87,3.32-2.67,7.29-4,11.91-4,5.16,0,9.17,1.56,12.04,4.68,2.87,3.12,4.55,6.56,5.05,10.33.09.4.15.81.17,1.21.02.4.03.81.03,1.21v13.79h-12.51v-15.41c0-1.43-.45-2.51-1.35-3.23-.9-.72-1.91-1.12-3.03-1.21h-.54c-1.08.05-2.06.42-2.96,1.11-.9.7-1.35,1.67-1.35,2.93,0,1.39.38,2.56,1.14,3.5.76.94,1.73,1.41,2.89,1.41.31,0,.65-.04,1.01-.13.36-.09.72-.2,1.08-.34.22-.04.43-.11.61-.2.18-.09.36-.18.54-.27v-.07Z"/>
    <path class="cls-1" d="m146.44,43.51c0-3.81,1.12-6.75,3.36-8.81,2.24-2.06,4.8-3.09,7.67-3.09l8.68-.07v10.02h-4.31c-.9.05-1.56.24-1.98.57-.43.34-.71.71-.84,1.11-.05.13-.08.27-.1.4-.02.13-.03.27-.03.4l7.27-.07v11.1h-7.27v19.71h-12.45v-31.28Z"/>
    <path class="cls-1" d="m201.8,55.09l-15.41,8.75-3.5-6.32,5.85-3.36c-.27-.22-.57-.45-.91-.67-.34-.22-.68-.38-1.04-.47-.13-.04-.27-.08-.4-.1-.13-.02-.27-.03-.4-.03-.09,0-.19.01-.3.03-.11.02-.24.03-.37.03-1.08.22-2.06.91-2.96,2.05-.9,1.14-1.35,2.48-1.35,4,0,2.06.57,3.69,1.72,4.88,1.14,1.19,2.54,1.78,4.2,1.78.63,0,1.3-.1,2.02-.3.72-.2,1.43-.48,2.15-.84.67-.36,1.33-.78,1.98-1.28.65-.49,1.27-1.08,1.85-1.75l6.86,6.66c-1.53,2.24-3.57,4.01-6.12,5.31-2.56,1.3-5.23,2.09-8.01,2.35-.31,0-.62.01-.91.03-.29.02-.6.03-.91.03-3.86,0-7.41-1.21-10.66-3.63-3.25-2.42-4.99-6.32-5.21-11.71,0-.04-.01-.1-.03-.17-.02-.07-.03-.15-.03-.24s-.01-.17-.03-.24c-.02-.07-.03-.12-.03-.17,0-4.62,1.28-8.23,3.83-10.83,2.56-2.6,5.36-4.24,8.41-4.91.54-.13,1.09-.24,1.65-.3.56-.07,1.11-.1,1.65-.1,4.8,0,8.43,1.16,10.9,3.46,2.47,2.31,4.31,5.01,5.52,8.11v-.07Z"/>
    <g>
      <path class="cls-3" d="m49.63,133.38h67.62c.83.07,1.47-.02,1.92-.26.45-.24.67-.5.67-.78s-.17-.6-.52-.98c-.35-.38-.83-.81-1.45-1.3-.35-.14-.69-.31-1.04-.52-.35-.21-.73-.38-1.14-.52-3.32-1.1-5.98-2.73-7.98-4.87-2-2.14-3.01-5.22-3.01-9.23,0-2.97.83-5.32,2.49-7.05,1.66-1.73,3.45-2.97,5.39-3.73.97-.34,1.92-.6,2.85-.78.93-.17,1.78-.26,2.54-.26l20.73-.1v14.72h-9.54c-.83.07-1.59.22-2.28.47-.69.24-1.04.61-1.04,1.09,0,.21.17.52.52.93.35.41.9.86,1.66,1.35.14.14.31.26.52.36.21.1.41.23.62.36.21.14.4.26.57.36.17.1.36.19.57.26,2.42,1.31,4.59,2.87,6.53,4.66,1.93,1.8,3.07,4.73,3.42,8.81,0,4.01-1.07,7.22-3.21,9.64-2.14,2.42-5.98,3.63-11.51,3.63l-75.91-.1v-16.17Z"/>
      <path class="cls-3" d="m144.43,131.62c0-4.26,1.48-7.96,4.44-11.1,2.96-3.14,6.62-4.71,10.97-4.71,5.02,0,9,1.58,11.94,4.74,2.94,3.16,4.43,6.65,4.47,10.46v.2c0,5.25-1.67,9.33-5.01,12.24-3.34,2.92-7.01,4.42-11,4.51h-.4c-.72,0-1.48-.07-2.29-.2-.81-.13-1.61-.34-2.42-.61-2.69-.94-5.15-2.69-7.37-5.25-2.22-2.56-3.33-5.96-3.33-10.23v-.07Zm11.97,0c0,1.26.39,2.23,1.18,2.93.78.7,1.65,1.07,2.59,1.11h.2c.94,0,1.81-.35,2.59-1.04.78-.69,1.18-1.67,1.18-2.93,0-1.08-.33-1.92-.98-2.52-.65-.61-1.38-.98-2.19-1.11-.09-.04-.19-.07-.3-.07h-.5c-.94.05-1.81.39-2.59,1.04-.79.65-1.18,1.54-1.18,2.66v-.07Z"/>
      <path class="cls-3" d="m180.49,104.24h12.92v42.79h-12.92v-42.79Z"/>
    </g>
    <g>
      <path class="cls-1" d="m159.61,85.08c-.3,0-.49.09-.56.27-.07.18-.11.68-.11,1.48v1.04h1.27v-1.04c0-.74-.04-1.21-.12-1.43-.08-.21-.24-.32-.48-.32Z"/>
      <path class="cls-1" d="m91.42,78.36c-5.25,0-9.31-1.56-12.17-4.68-2.87-3.12-4.42-6.55-4.66-10.27v-1.26c.08-3.73,1.47-7.14,4.18-10.22,2.7-3.08,6.64-4.66,11.81-4.74h9.45v-21.46l-11.27.11c-12.68,0-22.29,3.72-28.83,11.15-6.54,7.43-9.97,15.65-10.3,24.64v1.26c0,8.92,3.15,17.09,9.45,24.53,6.3,7.43,15.63,11.11,27.98,11.03h117.72v-20.21l-113.36.11Zm42.37,13.54c0,1.56-.07,2.6-.22,3.13-.15.53-.4.94-.77,1.23-.37.3-.82.51-1.35.62-.54.12-1.35.18-2.43.18h-5.7v-17.39h3.38c2.18,0,3.66.1,4.43.3.77.2,1.35.53,1.76.99.4.46.65.97.75,1.53.1.56.15,1.67.15,3.31v6.09Zm30.78-1.71h-5.62v3.08c0,.64.05,1.06.14,1.25.09.19.27.28.54.28.33,0,.55-.12.66-.37.11-.25.17-.73.17-1.43v-1.88h4.11v1.05c0,.88-.06,1.56-.17,2.03-.11.47-.37.98-.78,1.51s-.93.94-1.55,1.21c-.63.27-1.41.4-2.36.4s-1.73-.13-2.43-.4c-.7-.26-1.25-.63-1.64-1.09-.39-.46-.66-.97-.81-1.53-.15-.55-.23-1.36-.23-2.42v-4.16c0-1.25.17-2.23.5-2.95.34-.72.89-1.27,1.65-1.65.77-.38,1.65-.58,2.64-.58,1.22,0,2.22.23,3.01.69.79.46,1.35,1.07,1.67,1.84.32.76.48,1.83.48,3.22v1.89Zm25.28,6.88h-4.47v-17.39h4.47v17.39Z"/>
      <path class="cls-1" d="m128.85,82.81c-.18-.1-.52-.16-1.01-.16v11.44c.65,0,1.05-.13,1.2-.39.15-.26.23-.97.23-2.13v-6.76c0-.79-.03-1.29-.08-1.51-.05-.22-.17-.38-.34-.49Z"/>
    </g>
  </g>
</svg>