<?xml version="1.0" encoding="UTF-8"?>
<svg id="Ebene_2" data-name="Ebene 2" xmlns="http://www.w3.org/2000/svg" xmlns:xlink="http://www.w3.org/1999/xlink" viewBox="0 0 258.11 174.25">
  <defs>
    <style>
      .cls-1 {
        fill: url(#Unbenannter_Verlauf_2253);
      }

      .cls-1, .cls-2, .cls-3, .cls-4 {
        stroke-width: 0px;
      }

      .cls-5, .cls-6 {
        font-size: 8px;
      }

      .cls-5, .cls-7 {
        font-family: DINAlternate-Bold, 'DIN Alternate';
        font-weight: 700;
      }

      .cls-5, .cls-7, .cls-3 {
        fill: #1d1d1b;
      }

      .cls-8 {
        letter-spacing: -.06em;
      }

      .cls-9 {
        fill: none;
        stroke: #1d1d1b;
        stroke-miterlimit: 10;
        stroke-width: .57px;
      }

      .cls-10 {
        letter-spacing: -.1em;
      }

      .cls-11 {
        font-size: 12px;
      }

      .cls-4 {
        fill: #fff;
      }
    </style>
    <linearGradient id="Unbenannter_Verlauf_2253" data-name="Unbenannter Verlauf 2253" x1="0" y1="71.3" x2="258.11" y2="71.3" gradientUnits="userSpaceOnUse">
      <stop offset="0" stop-color="#ffde00" stop-opacity="0"/>
      <stop offset="1" stop-color="#ffde00"/>
    </linearGradient>
  </defs>
  <g id="Ebene_1-2" data-name="Ebene 1">
    <rect class="cls-4" x=".06" width="258.05" height="174.25"/>
    <polygon class="cls-1" points="258.09 115 0 92.47 0 76.77 258.11 27.6 258.09 115"/>
    <path class="cls-4" d="m74.48,32.8c0-1.12,0-2.24,0-3.36,0,1.12,0,2.24,0,3.36,0,1.14,0,2.28,0,3.42,0-1.14,0-2.28,0-3.42Z"/>
    <path class="cls-4" d="m44.92,36.26c-.36,0-.72,0-1.07,0,.36,0,.72,0,1.07,0,.37,0,.74,0,1.11,0-.37,0-.74,0-1.11,0Z"/>
    <path class="cls-4" d="m59.1,31.28c0-1.25,0-2.49,0-3.74,0,1.25,0,2.49,0,3.74,0,1.29,0,2.57,0,3.86,0-1.29,0-2.57,0-3.86Z"/>
    <path class="cls-4" d="m72.52,27.53c0,1.76,0,3.52,0,5.27v5.3c0-1.77,0-3.54,0-5.3,0-1.76,0-3.52,0-5.27Z"/>
    <path class="cls-4" d="m89.47,27.48c0,1.78,0,3.56,0,5.34s0,3.58,0,5.37c0-1.79,0-3.58,0-5.37s0-3.56,0-5.34Z"/>
    <path class="cls-4" d="m117.37,30.44c0,.3,0,.61,0,.91,0,.3,0,.61,0,.91,0-.3,0-.61,0-.91,0-.3,0-.61,0-.91Z"/>
    <path class="cls-9" d="m80.12,29.86c-.3-1.62-1.66-2.85-3.32-2.93-1.22-.06-2.44-.04-3.66-.04-.5,0-.62.13-.62.64,0,1.76,0,3.52,0,5.27v5.3s0,.02,0,.03c0,.46.14.6.6.6,1.06,0,2.13,0,3.19,0,2.22,0,3.87-1.63,3.88-3.83,0-1.43,0-2.87,0-4.3,0-.25-.02-.5-.07-.75Zm-1.9,5.14c0,1.04-.71,1.76-1.75,1.78-.48,0-.97,0-1.45,0-.41,0-.54-.14-.54-.55,0-1.14,0-2.28,0-3.42,0-1.12,0-2.24,0-3.36,0-.49.11-.6.62-.6.45,0,.91,0,1.36,0,1.07.02,1.76.73,1.77,1.79,0,1.45,0,2.91,0,4.36Z"/>
    <path class="cls-9" d="m47.35,31.72c-.41-1.5-.82-3-1.24-4.49-.08-.3-.28-.46-.59-.45-.4,0-.8,0-1.2,0-.32,0-.51.16-.6.45-.09.29-.16.58-.24.87-.66,2.39-1.32,4.79-1.98,7.18-.25.91-.5,1.81-.74,2.72-.13.47-.03.6.45.6.31,0,.61,0,.92,0,.35,0,.54-.15.64-.48.12-.43.24-.86.36-1.3.11-.4.29-.55.72-.55.36,0,.72,0,1.07,0,.37,0,.74,0,1.11,0,.37,0,.56.15.66.5.12.44.24.89.37,1.33.1.35.29.5.66.5.34,0,.67,0,1.01,0,.34,0,.45-.15.37-.47-.58-2.13-1.16-4.27-1.74-6.4Zm-1.8,2.59c-.42,0-.84,0-1.26,0-.31,0-.42-.15-.35-.44.28-1.07.58-2.13.87-3.19.01-.05.06-.1.12-.2.05.12.09.19.11.26.29,1.03.57,2.07.85,3.1.09.31-.03.47-.34.47Z"/>
    <path class="cls-9" d="m107.91,31.92c-.6-.23-1.2-.45-1.78-.7-.4-.18-.63-.51-.65-.96-.04-.76.43-1.35,1.23-1.49.71-.12,1.33.12,1.85.59.23.21.45.24.71.07.25-.17.51-.33.77-.5.32-.21.36-.47.11-.75-.95-1.08-2.74-1.75-4.27-1.21-2.36.83-2.89,3.16-1.91,4.84.47.81,1.28,1.21,2.12,1.54.69.27,1.39.53,2.07.82.34.15.57.43.66.8.22.9-.3,1.71-1.26,1.91-.79.16-1.52-.02-2.16-.53-.35-.28-.42-.29-.81-.05-.23.14-.47.28-.7.43-.37.24-.4.46-.09.79.9.97,2.06,1.31,3.12,1.37,1.04,0,1.9-.29,2.56-.82,1.65-1.29,1.84-3.62.42-5.02-.56-.55-1.26-.86-1.98-1.13Z"/>
    <path class="cls-3" d="m64.61,33.77c-.87,0-1.75,0-2.62,0-.93,0-.94-.01-.92-.93,0-.43.15-.58.59-.58.52,0,1.03,0,1.55,0,.39,0,.53-.14.53-.53,0-.28,0-.57,0-.85,0-.42-.15-.56-.58-.56-.41,0-.82,0-1.23,0-.86,0-.87-.01-.86-.86,0-.53.1-.63.63-.63.98,0,1.96,0,2.94,0,.4,0,.55-.15.56-.55,0-.25,0-.5,0-.75,0-.52-.13-.65-.66-.65-1.59,0-3.18,0-4.77,0-.55,0-.66.11-.66.67,0,1.25,0,2.49,0,3.74,0,1.29,0,2.57,0,3.86,0,.46.12.57.58.57,1.65,0,3.31,0,4.96,0,.38,0,.53-.14.54-.53,0-.28,0-.57,0-.85,0-.41-.16-.57-.58-.57Z"/>
    <path class="cls-2" d="m82.04,31.3c0-1.26,0-2.51,0-3.77,0,1.26,0,2.51,0,3.77,0,1.29,0,2.58,0,3.86,0-1.29,0-2.58,0-3.86Z"/>
    <path class="cls-3" d="m82.04,35.17c0,.42.13.56.5.56,1.7,0,3.39,0,5.09,0,.34,0,.48-.13.49-.47.01-.29,0-.59,0-.88,0-.46-.14-.59-.61-.59-.86,0-1.73-.02-2.59,0-.92.02-.94-.12-.92-.94,0-.41.17-.57.58-.57.54,0,1.07,0,1.61,0,.33,0,.48-.14.5-.47.01-.29,0-.59,0-.88,0-.44-.15-.58-.59-.59-.52,0-1.03,0-1.55,0-.4,0-.54-.15-.55-.55,0-.08,0-.17,0-.25,0-.57.11-.69.68-.69.93,0,1.85,0,2.78,0,.57,0,.67-.11.68-.68,0-.21,0-.42,0-.63,0-.52-.12-.64-.66-.64-1.59,0-3.18,0-4.77,0-.54,0-.66.12-.66.64,0,1.26,0,2.51,0,3.77,0,1.29,0,2.58,0,3.86Z"/>
    <path class="cls-2" d="m32.7,32.76c0-.63,0-1.26,0-1.88,0,.63,0,1.26,0,1.88,0,.64,0,1.27,0,1.91,0-.64,0-1.27,0-1.91Z"/>
    <path class="cls-9" d="m39.56,36.56c-.31-.16-.62-.3-.93-.45-.22-.1-.42-.07-.57.12-.49.61-1.16.72-1.88.64-.88-.1-1.51-.8-1.51-1.68,0-1.61,0-3.22,0-4.83,0-.62.28-1.08.79-1.41.74-.48,1.93-.34,2.52.31.22.24.44.3.72.15.27-.14.55-.27.82-.41.33-.18.39-.42.18-.72-.05-.08-.11-.15-.17-.22-.97-1.12-2.22-1.46-3.66-1.28-1.75.23-3.13,1.73-3.16,3.49,0,.21,0,.42,0,.63,0,.63,0,1.26,0,1.88,0,.64,0,1.27,0,1.91,0,.21,0,.42,0,.64.01.8.28,1.52.79,2.14.94,1.16,2.2,1.54,3.63,1.37,1.08-.13,1.96-.65,2.6-1.55.21-.3.16-.53-.16-.7Z"/>
    <path class="cls-3" d="m115.84,26.93c-1.52-.07-3.07,1.02-3.47,2.5-.31,1.14-.26,2.32-.09,3.46.23,1.53,1.56,2.69,3.07,2.85,1.62.17,3.09-.7,3.72-2.19.31-.72.26-1.47.29-2.23-.03-.51-.03-1.03-.11-1.53-.25-1.61-1.67-2.78-3.42-2.87Zm1.53,5.34c-.02.81-.67,1.5-1.45,1.54-.9.05-1.65-.54-1.72-1.39-.05-.71-.05-1.42,0-2.13.06-.85.82-1.45,1.68-1.4.84.05,1.48.72,1.5,1.56,0,.3,0,.61,0,.91,0,.3,0,.61,0,.91Z"/>
    <path class="cls-2" d="m50.53,27.47c0,1.77,0,3.54,0,5.31,0,.89,0,1.79,0,2.68,0-.9,0-1.79,0-2.68,0-1.77,0-3.54,0-5.31Z"/>
    <path class="cls-9" d="m56.62,26.87c-1.83,0-3.67,0-5.5,0-.47,0-.59.13-.59.6,0,1.77,0,3.54,0,5.31,0,.89,0,1.79,0,2.68,0,.89,0,1.79,0,2.68,0,.42.15.56.57.57.25,0,.51,0,.76,0,.49,0,.64-.15.64-.63,0-1.26,0-2.51,0-3.77,0-.43.13-.55.57-.55.61,0,1.22,0,1.83,0,.52,0,.63-.11.64-.61,0-.24,0-.48,0-.72,0-.49-.13-.62-.61-.62-.64,0-1.29,0-1.93,0-.37,0-.5-.13-.5-.49,0-.62,0-1.24,0-1.85,0-.55.09-.64.64-.64,1.17,0,2.34,0,3.51,0,.44,0,.59-.15.59-.58,0-.25,0-.5,0-.75,0-.48-.14-.62-.62-.62Z"/>
    <path class="cls-9" d="m127.93,37.5c0-.62-.07-.69-.68-.69-1.16,0-2.32,0-3.48,0-.43,0-.57-.15-.58-.56,0-.08,0-.17,0-.25,0-2.83,0-5.65,0-8.48,0-.48-.11-.58-.6-.59-.23,0-.46,0-.7,0-.55,0-.66.11-.66.66,0,1.75,0,3.5,0,5.24,0,1.74,0,3.48,0,5.21,0,.61.1.72.71.72.48,0,.97,0,1.45,0,1.33,0,2.65,0,3.98,0,.4,0,.55-.15.55-.55,0-.24,0-.48,0-.72Z"/>
    <path class="cls-9" d="m95.57,36.79c-1.16,0-2.32,0-3.47,0-.57,0-.67-.1-.66-.65,0-2.88,0-5.75,0-8.63,0-.47-.13-.59-.6-.6-.26,0-.53,0-.79,0-.46,0-.58.13-.58.58,0,1.78,0,3.56,0,5.34s0,3.58,0,5.37c0,.4.15.56.55.56,1.86,0,3.73,0,5.59,0,.4,0,.57-.17.57-.57,0-.26,0-.52,0-.78,0-.46-.14-.6-.6-.6Z"/>
    <path class="cls-2" d="m115.78,36.81c.93,0,1.85,0,2.78,0-.93,0-1.85,0-2.78,0-.96,0-1.92,0-2.87,0,.96,0,1.92,0,2.87,0Z"/>
    <path class="cls-2" d="m62.14,36.77c.82,0,1.64,0,2.46,0-.82,0-1.64,0-2.46,0-.85,0-1.7,0-2.56,0,.85,0,1.7,0,2.56,0Z"/>
    <path class="cls-2" d="m85.11,36.78c.82,0,1.64,0,2.46,0-.82,0-1.64,0-2.46,0-.85,0-1.7,0-2.56,0,.85,0,1.7,0,2.56,0Z"/>
    <path class="cls-3" d="m118.56,36.81c-.93,0-1.85,0-2.78,0-.96,0-1.92,0-2.87,0-.34,0-.48.14-.49.47,0,.33,0,.67,0,1,0,.32.17.48.49.48,1.91,0,3.81,0,5.72,0,.33,0,.49-.18.5-.51,0-.29,0-.59,0-.88,0-.42-.14-.56-.56-.56Z"/>
    <path class="cls-3" d="m64.6,36.77c-.82,0-1.64,0-2.46,0-.85,0-1.7,0-2.56,0-.32,0-.47.13-.48.45-.02.33-.01.67,0,1,.01.36.16.5.54.5,1.66,0,3.32,0,4.99,0,.39,0,.55-.16.56-.56,0-.27,0-.54,0-.82,0-.44-.15-.58-.58-.59Z"/>
    <path class="cls-3" d="m87.57,36.79c-.82,0-1.64,0-2.46,0-.85,0-1.7,0-2.56,0-.36,0-.51.14-.52.48-.01.32-.01.65,0,.97.01.34.17.5.51.5,1.68,0,3.37,0,5.05,0,.36,0,.51-.16.52-.52,0-.3,0-.61,0-.91,0-.39-.15-.52-.54-.52Z"/>
    <path class="cls-3" d="m19.07,16.5c0,.93,0,1.85,0,2.78,0,.96,0,1.92,0,2.87,0,.34.14.48.47.49.33,0,.67,0,1,0,.32,0,.48-.17.48-.5,0-1.91,0-3.81,0-5.72,0-.33-.18-.49-.51-.5-.29,0-.59,0-.88,0-.42,0-.56.14-.56.57Z"/>
    <path class="cls-3" d="m19.07,63c0,.93,0,1.85,0,2.78,0,.96,0,1.92,0,2.87,0,.34.14.48.47.49.33,0,.67,0,1,0,.32,0,.48-.17.48-.5,0-1.91,0-3.81,0-5.72,0-.33-.18-.49-.51-.5-.29,0-.59,0-.88,0-.42,0-.56.14-.56.57Z"/>
    <path class="cls-3" d="m19.07,109.5c0,.93,0,1.85,0,2.78,0,.96,0,1.92,0,2.87,0,.34.14.48.47.49.33,0,.67,0,1,0,.32,0,.48-.17.48-.5,0-1.91,0-3.81,0-5.72,0-.33-.18-.49-.51-.5-.29,0-.59,0-.88,0-.42,0-.56.14-.56.57Z"/>
    <path class="cls-3" d="m19.07,156c0,.93,0,1.85,0,2.78,0,.96,0,1.92,0,2.87,0,.34.14.48.47.49.33,0,.67,0,1,0,.32,0,.48-.17.48-.5,0-1.91,0-3.81,0-5.72,0-.33-.18-.49-.51-.5-.29,0-.59,0-.88,0-.42,0-.56.14-.56.57Z"/>
    <path class="cls-4" d="m240.76,64.35c-24.55,3.8-49.51,6.76-74.27,8.77,24.55-3.81,49.51-6.75,74.27-8.77h0Z"/>
    <path class="cls-4" d="m156.7,70.17c20.44-3.83,41.27-6.83,61.96-8.88-20.44,3.84-41.27,6.82-61.96,8.88h0Z"/>
    <path class="cls-4" d="m214.06,61.95c-14.1-2.43-28.11-5.28-42.1-8.26,0,0-13.97-3.05-13.97-3.05l.45-.1c-2.87,2.17-10.36,7.81-13.18,9.85-1.47,1.09-2.95,2.16-4.44,3.23,1.39-1.19,2.79-2.36,4.2-3.53,2.76-2.32,10.04-8.23,12.94-10.57,0,0,.26.05.26.05l14.01,2.87c13.99,2.95,27.96,6.02,41.84,9.52h0Z"/>
    <path class="cls-4" d="m101.9,74.23c14.21-2.62,28.65-5.63,42.98-8.22.11.03,23.14,6.9,23.26,6.94,0,0,.59.18.59.18-.08.38-.43,1.78-.52,2.19,0,0-.16.67-.16.67l-.66-.2-22.59-6.72c-5.39,1.09-13.72,2.18-20.09,3.26-5.06.79-15.3,2.35-20.37,3.1,0,0-.02,0-.02,0h-.02s-2.42-1.21-2.42-1.21h0Zm0,0c.76.38,1.84.77,2.43,1.08,0,0,10.13-1.9,10.13-1.9,9.84-1.78,20.62-3.77,30.42-5.45,0,0,.13-.02.13-.02l.13.04,22.63,6.56-.82.48.38-1.59.45.78-23.08-7.06c-12.9,2.44-28.75,4.61-42.79,7.09h0Z"/>
    <path class="cls-4" d="m159.46,69.77c-4.35-1.07-10.9-3.08-15.25-4.39,0,0,.26.02.26.02l-5.49,1.09c-4.89.94-11.6,2.17-16.51,3.01-6.6,1.64-13.73,3.32-20.57,4.72,6.74-2.13,13.53-4.07,20.35-5.92,4.89-.94,11.6-2.17,16.51-3.02,0,0,5.52-.92,5.52-.92l.14-.02c3.79,1.32,11.28,4.03,15.04,5.44h0Z"/>
    <path class="cls-4" d="m122.92,68.8c3.11-3.13,6.5-5.9,9.97-8.61,2,.71,4,1.43,5.97,2.24,1.86.75,3.71,1.54,5.52,2.45-1.98-.41-3.92-.93-5.85-1.5-1.93-.56-3.83-1.19-5.73-1.83l.62-.1c-3.38,2.62-6.81,5.16-10.49,7.35h0Z"/>
    <path class="cls-4" d="m107.37,95.11c-.9-5.02-.91-10.2,0-15.22.91,5.02.9,10.2,0,15.22h0Z"/>
    <path class="cls-4" d="m113.03,101.14c-.48-9.28-.62-18.56-.65-27.85,5.35-.89,10.71-1.73,16.08-2.5,4.56-.62,11.04-1.54,15.56-1.99-4.41.99-10.91,2.21-15.43,3.05-5.16.94-10.33,1.81-15.51,2.64l.59-.65c-.03,9.1-.18,18.21-.65,27.3h0Z"/>
    <path class="cls-4" d="m148.04,74.75c.74,7.54.77,15.12.51,22.68,0,0-.5-.51-.5-.51,2.46.13,4.92.31,7.36.6-1.23.13-2.46.18-3.69.27-1.39.07-2.78.13-4.17.16-.29-7.73-.26-15.49.49-23.2h0Z"/>
    <path class="cls-4" d="m155.41,71.59c.64,8.63.72,17.29.62,25.94,0,0-.64-.61-.64-.61,2.79-.09,5.58-.15,8.37-.16l-.36.38c.04-1.07.1-2.14.17-3.2.06-1.07.12-2.14.21-3.2.17,2.25.3,4.5.39,6.75-3.12.29-6.24.51-9.36.7-.11-8.87-.05-17.74.61-26.59h0Z"/>
    <path class="cls-4" d="m184.16,98c-.9-8.02-.91-16.14,0-24.17.91,8.02.9,16.14,0,24.17h0Z"/>
    <path class="cls-4" d="m167.58,75.16c22.52-3.19,48.99-6.61,70.33-8.49,0,0,2.5-2.64,2.5-2.64l.29.8-11.02-1.71c-3.67-.61-7.34-1.18-11.01-1.83,6.43.65,15.66,1.8,22.16,2.59,0,0,.9.11.9.11l-.61.69-2.42,2.71c-.15.18-.11.14-.33.17-23.28,2.86-47.48,5.66-70.78,7.6h0Z"/>
    <path class="cls-4" d="m163.76,90.72c23.92-.53,51.12-.88,75.06-1.05,0,0,.62,0,.62,0v.62s.03,9.71.03,9.71v.66s-.67-.02-.67-.02c-25.13-.93-50.25-2.01-75.37-3.2,0,0,0-.31,0-.31l.33-23.09.33,23.09-.31-.33c25.03.73,50.06,1.57,75.08,2.56l-.67.64.03-9.71.62.62-18.77.06c-17.48,0-38.82-.05-56.3-.24h0Z"/>
    <path class="cls-4" d="m148.04,90.5c5.2-.94,10.56-.86,15.73.22-5.21.74-10.54.64-15.73-.22h0Z"/>
    <path class="cls-4" d="m238.83,100c.09,2.71.15,5.42.21,8.14-6.34-.27-12.68-.67-19.02-1.02-18.61-1.13-37.69-2.46-56.29-4.04.43-.04-8.35,1.18-8.28,1.17-3.81-.47-7.62-.98-11.43-1.52,3.67.28,7.96.64,11.34.94.04,0,8.34-1.44,8.38-1.44,18.67,1.03,37.75,2.38,56.36,3.86,6.25.54,12.5,1.02,18.74,1.63l-.22.21c.06-2.64.12-5.28.21-7.92h0Z"/>
    <path class="cls-4" d="m130.68,97.08c-.25-7.09-.37-14.19-.47-21.29,4.21-.61,8.42-1.18,12.63-1.72l12.22-1.6-.16,1.26-5.55-2.18-5.55-2.19.82-.56c-.04,11.64-.22,24.3-.6,35.89-.39-11.58-.56-24.27-.6-35.89,0,0,0-.88,0-.88l.83.32c2.78,1.06,8.37,3.21,11.14,4.28,0,0,2.45.94,2.45.94-8.22.97-18.92,2.33-27.08,3.2,0,0,.41-.46.41-.46-.1,6.96-.22,13.92-.47,20.88h0Z"/>
    <path class="cls-4" d="m130.68,76.2c-5.96.11-11.94-.68-17.66-2.36,5.96-.12,11.93.68,17.66,2.36h0Z"/>
    <path class="cls-4" d="m143.77,97.52c-4.91.24-9.82.3-14.73.17,0,0,.67-.65.67-.65v1.14s-.62-.65-.62-.65c2.45.14,4.9.3,7.35.53,2.45.22,4.9.5,7.33.88-1.23.08-2.46.08-3.69.12-3.89.05-7.79-.07-11.67-.26,0-.7,0-1.75,0-2.44,5.13.18,10.28.38,15.37,1.16h0Z"/>
    <path class="cls-4" d="m143.77,99.29c-5.23.25-10.46.3-15.69.17,0,0,.67-.65.67-.65v1.14s-.62-.65-.62-.65c5.23.28,10.46.66,15.65,1.42-1.31.08-2.62.08-3.93.12-4.14.05-8.27-.07-12.4-.26v-.63c.02-.42,0-1.4,0-1.82,5.45.18,10.93.38,16.33,1.16h0Z"/>
    <path class="cls-4" d="m143.77,100.84c-5.65.25-11.3.3-16.95.17,0,0,.67-.65.67-.65v1.14s-.63-.66-.63-.66c2.82.14,5.64.3,8.46.53,2.82.22,5.64.5,8.44.88-1.42.08-2.83.08-4.25.12-4.45.05-8.9-.07-13.34-.25,0,0,0-.63,0-.63.02-.42-.01-1.4,0-1.81,5.87.18,11.76.37,17.59,1.16h0Z"/>
    <path class="cls-4" d="m143.77,102.4c-6.1.25-12.19.3-18.29.17,0,0,.67-.66.67-.66v1.14s-.63-.66-.63-.66c3.05.14,6.09.3,9.13.53,3.05.22,6.09.5,9.12.89-1.53.08-3.06.08-4.58.12-4.79.05-9.57-.07-14.35-.25,0-.7,0-1.75,0-2.45,6.32.18,12.66.37,18.94,1.16h0Z"/>
    <path class="cls-4" d="m104.35,75.37c7.66.6,15.64,1.61,23.28,2.54,0,0-4.63.64-4.63.64-4.95.7-10.45,1.39-15.44,1.98-1.72.19-3.44.41-5.16.57l-.21-1.01,6.62-1.74c2.22-.53,4.42-1.11,6.66-1.6-2.14.79-4.31,1.49-6.47,2.24l-6.51,2.1-.21-1.01c1.71-.28,3.42-.5,5.14-.75,4.99-.69,10.47-1.41,15.44-1.97,0,0,0,1.2,0,1.2-6.09-.93-12.45-1.98-18.49-3.18h0Z"/>
    <path class="cls-4" d="m128.1,99.35c-7.5-.21-14.99-.72-22.46-1.37,0-.83-.01-2.72-.02-3.56l.68.02c7.91.23,16.52.59,24.39,1.3-3.52.16-8.64.18-12.22.19-3.53.03-8.62-.1-12.21-.17,0,0,.68-.66.68-.66v2.28s-.6-.64-.6-.64c7.27.69,14.53,1.5,21.76,2.6h0Z"/>
    <text class="cls-5" transform="translate(163.22 151.82)"><tspan x="0" y="0">ww</tspan><tspan class="cls-8" x="11.55" y="0">w</tspan><tspan x="16.89" y="0">.cafedelsol.de</tspan></text>
    <text class="cls-7" transform="translate(36.51 122.96)"><tspan class="cls-11"><tspan x="0" y="0">MAX MUSTERMANN</tspan></tspan><tspan class="cls-6"><tspan class="cls-10" x="0" y="14">T</tspan><tspan x="3.2" y="14">el.: 0123 / 456 789</tspan></tspan><tspan class="cls-6"><tspan x="0" y="28">mustermann@cafedelsol.de</tspan></tspan></text>
    <path class="cls-4" d="m211.19,98.62c-.9-9.21-.91-18.43,0-27.64.91,9.21.9,18.43,0,27.64h0Z"/>
    <path class="cls-4" d="m233.01,67.64c.9,10.78.91,21.58,0,32.36-.91-10.78-.9-21.58,0-32.36h0Z"/>
  </g>
</svg>