<?xml version="1.0" encoding="UTF-8"?>
<svg id="Ebene_2" data-name="Ebene 2" xmlns="http://www.w3.org/2000/svg" xmlns:xlink="http://www.w3.org/1999/xlink" viewBox="0 0 259.71 153.14">
  <defs>
    <style>
      .cls-1 {
        letter-spacing: 0em;
      }

      .cls-2 {
        letter-spacing: 0em;
      }

      .cls-3 {
        fill: #1d1d1b;
        font-family: Times-Roman, Times;
        font-size: 10px;
      }

      .cls-4 {
        fill: url(#Orange_Gelb_Kopie);
      }

      .cls-4, .cls-5, .cls-6, .cls-7, .cls-8, .cls-9, .cls-10, .cls-11, .cls-12 {
        stroke-width: 0px;
      }

      .cls-13 {
        letter-spacing: 0em;
      }

      .cls-14 {
        letter-spacing: 0em;
      }

      .cls-5 {
        fill: url(#Orange_Gelb_Kopie-5);
      }

      .cls-6 {
        fill: url(#Orange_Gelb_Kopie-3);
      }

      .cls-7 {
        fill: url(#Orange_Gelb_Kopie-6);
      }

      .cls-8 {
        fill: url(#Orange_Gelb_Kopie-7);
      }

      .cls-9 {
        fill: url(#Orange_Gelb_Kopie-4);
      }

      .cls-10 {
        fill: url(#Orange_Gelb_Kopie-2);
      }

      .cls-15 {
        font-family: MyriadPro-Regular, 'Myriad Pro';
        font-size: 12px;
      }

      .cls-15, .cls-12 {
        fill: #e4322e;
      }

      .cls-16 {
        letter-spacing: -.06em;
      }
    </style>
    <linearGradient id="Orange_Gelb_Kopie" data-name="Orange, Gelb Kopie" x1="75.52" y1="124.53" x2="92.42" y2="124.53" gradientUnits="userSpaceOnUse">
      <stop offset="0" stop-color="#ffef26"/>
      <stop offset=".02" stop-color="#fee921"/>
      <stop offset=".1" stop-color="#fdd70e"/>
      <stop offset=".19" stop-color="#fdcb03"/>
      <stop offset=".28" stop-color="#fdc800"/>
      <stop offset=".67" stop-color="#f18f34"/>
      <stop offset=".89" stop-color="#e95f32"/>
      <stop offset="1" stop-color="#e3312d"/>
    </linearGradient>
    <linearGradient id="Orange_Gelb_Kopie-2" data-name="Orange, Gelb Kopie" x1="0" y1="123.41" x2="36.72" y2="123.41" xlink:href="#Orange_Gelb_Kopie"/>
    <linearGradient id="Orange_Gelb_Kopie-3" data-name="Orange, Gelb Kopie" x1="94.65" y1="127.31" x2="200.33" y2="127.31" xlink:href="#Orange_Gelb_Kopie"/>
    <linearGradient id="Orange_Gelb_Kopie-4" data-name="Orange, Gelb Kopie" x1="169.66" y1="125.47" x2="259.71" y2="125.47" xlink:href="#Orange_Gelb_Kopie"/>
    <linearGradient id="Orange_Gelb_Kopie-5" data-name="Orange, Gelb Kopie" x1="0" y1="139.75" x2="141.12" y2="139.75" xlink:href="#Orange_Gelb_Kopie"/>
    <linearGradient id="Orange_Gelb_Kopie-6" data-name="Orange, Gelb Kopie" x1="219.94" y1="150.96" x2="251.73" y2="150.96" xlink:href="#Orange_Gelb_Kopie"/>
    <linearGradient id="Orange_Gelb_Kopie-7" data-name="Orange, Gelb Kopie" x1="118.67" y1="144.03" x2="217.07" y2="144.03" xlink:href="#Orange_Gelb_Kopie"/>
  </defs>
  <g id="Ebene_1-2" data-name="Ebene 1">
    <text transform="translate(70.73 12.3)"><tspan class="cls-15"><tspan class="cls-14" x="0" y="0">M</tspan><tspan x="9.72" y="0">ax </tspan><tspan class="cls-13" x="23.6" y="0">M</tspan><tspan x="33.29" y="0">us</tspan><tspan class="cls-2" x="44.65" y="0">t</tspan><tspan x="48.55" y="0">e</tspan><tspan class="cls-1" x="54.56" y="0">r</tspan><tspan x="58.53" y="0">mann</tspan></tspan><tspan class="cls-3"><tspan x="0" y="25" xml:space="preserve"> 0123 / 456 789</tspan></tspan><tspan class="cls-3"><tspan x="0" y="50">mustermann@cafedelsol.de</tspan></tspan><tspan class="cls-3"><tspan x="0" y="75">ww</tspan><tspan class="cls-16" x="14.44" y="75">w</tspan><tspan x="21.02" y="75">.cafedelsol.de</tspan></tspan></text>
    <path class="cls-11" d="m50.59,51.91c2.27,0,4.53.02,6.8-.01,1.09-.02,1.91.85,1.9,1.9,0,2.83,0,5.66,0,8.49,0,1.1-.78,1.88-1.86,1.88-4.58,0-9.16,0-13.74,0-1,0-1.8-.77-1.81-1.76-.01-2.91-.01-5.82,0-8.73,0-1.01.81-1.77,1.82-1.77,2.3,0,4.59,0,6.89,0Zm-7.83,2.44c-.07.06-.05.12-.05.17,0,2.58,0,5.16,0,7.74,0,.64.4,1.02,1.03,1.02,4.55,0,9.09,0,13.64,0,.67,0,1.05-.37,1.05-1.04,0-2.64,0-5.29,0-7.93,0-.07.03-.14-.05-.2-.08.05-.16.11-.24.16-1.96,1.39-3.92,2.78-5.87,4.17-.25.18-.52.33-.82.4-.81.18-1.56,0-2.24-.43-1.72-1.07-3.44-2.16-5.16-3.23-.43-.27-.87-.54-1.3-.81Zm7.83-1.55c-2.27,0-4.55,0-6.82,0-.3,0-.57.06-.79.29-.19.21-.19.23.05.39,2.03,1.28,4.06,2.55,6.1,3.83.35.22.68.46,1.08.58.55.17,1.07.17,1.57-.18,1.37-.98,2.74-1.95,4.12-2.92.72-.51,1.43-1.02,2.15-1.52.17-.12.15-.19,0-.29-.2-.14-.42-.18-.66-.18-2.26,0-4.53,0-6.79,0Z"/>
    <path class="cls-11" d="m59.38,81.04v1.19s-.03.07-.03.11c-.04.59-.15,1.17-.32,1.73-1.23,4.07-5.31,6.7-9.71,5.88-1.47-.27-2.8-.9-3.92-1.9-2.41-2.15-3.34-4.85-2.8-8.03.25-1.47.9-2.78,1.88-3.9,1.36-1.57,3.07-2.53,5.14-2.86.23-.04.47-.07.7-.1.4,0,.79,0,1.19,0,.04.04.08.03.12.03.3.01.59.06.88.12,1.47.29,2.78.91,3.91,1.89,1.57,1.36,2.53,3.07,2.85,5.13.04.23.07.46.1.7Zm-10.57.1c.49,0,.98,0,1.47,0,.09,0,.14-.01.14-.12,0-.76,0-1.52,0-2.28,0-.08-.02-.11-.11-.12-.89-.03-1.77-.07-2.65-.19-.07,0-.11.01-.12.09-.19.81-.28,1.63-.33,2.46,0,.12.03.16.15.16.48,0,.97,0,1.45,0Zm4.2,0c.48,0,.96,0,1.44,0,.14,0,.18-.04.17-.17-.05-.79-.14-1.58-.3-2.35-.03-.16-.11-.17-.24-.15-.84.1-1.68.15-2.52.16-.11,0-.15.02-.15.14,0,.74,0,1.49,0,2.23,0,.12.04.14.15.14.48,0,.97,0,1.45,0Zm-8.19,0c.4,0,.8,0,1.21,0,.15,0,.19-.05.19-.19,0-.4.04-.79.09-1.18.05-.46.13-.91.23-1.36.02-.08.02-.14-.1-.16-.62-.11-1.24-.25-1.84-.44-.07-.02-.11-.01-.14.05-.57.97-.89,2.01-.99,3.13,0,.11.02.14.13.14.41,0,.81,0,1.22,0Zm8.19.99c-.48,0-.96,0-1.44,0-.14,0-.17.04-.17.18,0,.7,0,1.41,0,2.11,0,.15.05.19.18.19.47,0,.94.02,1.4.07.38.04.76.07,1.13.11.08,0,.14.02.17-.1.18-.79.27-1.59.33-2.4,0-.13-.03-.16-.15-.15-.48,0-.97,0-1.45,0Zm3.98,0c-.4,0-.8,0-1.21,0-.14,0-.18.04-.18.18-.02.84-.13,1.66-.32,2.48-.03.12,0,.17.12.19.62.1,1.23.24,1.82.43.09.03.14,0,.18-.08.09-.19.2-.37.28-.56.37-.78.57-1.6.66-2.45.02-.14-.02-.19-.17-.18-.4.01-.79,0-1.19,0Zm0-.99c.41,0,.83,0,1.24,0,.11,0,.15-.03.13-.14-.02-.17-.04-.34-.07-.51-.13-.91-.43-1.76-.88-2.55-.05-.08-.09-.09-.17-.07-.61.18-1.22.31-1.85.41-.11.02-.12.06-.1.15.04.19.08.38.12.56.11.65.19,1.31.2,1.97,0,.14.05.17.19.17.4,0,.79,0,1.19,0Zm-8.18.99c-.48,0-.97,0-1.45,0-.12,0-.15.03-.14.15.05.81.14,1.61.33,2.4.02.09.06.1.14.09.16-.02.33-.04.49-.05.7-.07,1.41-.1,2.11-.12.11,0,.15-.03.15-.15,0-.72,0-1.44,0-2.17,0-.13-.04-.15-.16-.15-.48,0-.97,0-1.45,0Zm-3.97,0c-.41,0-.82,0-1.22,0-.13,0-.16.04-.14.16.03.17.04.34.07.51.13.89.43,1.72.87,2.51.04.07.08.08.15.06.62-.19,1.25-.32,1.89-.43.09-.01.12-.05.09-.15-.19-.83-.3-1.67-.32-2.51,0-.11-.04-.15-.16-.15-.41,0-.81,0-1.22,0Zm9.14-4.66c-.34-.96-.77-1.85-1.49-2.57-.28-.27-.59-.49-.96-.62-.09-.03-.12-.02-.12.08,0,1.05,0,2.09,0,3.14,0,.12.04.13.14.13.21-.01.43-.02.64-.02.59-.02,1.19-.07,1.79-.13Zm-3.58,11.5s.01-.04.01-.06c0-1.06,0-2.13,0-3.19,0-.12-.05-.12-.14-.12-.72.02-1.44.05-2.16.13-.28.03-.28.03-.18.28.32.83.72,1.61,1.35,2.25.32.32.67.58,1.12.7Zm.01-13.02c0-.52,0-1.04,0-1.55,0-.13-.03-.14-.15-.1-.39.15-.72.38-1,.68-.66.68-1.06,1.5-1.38,2.38-.05.13.04.12.12.13.76.07,1.51.13,2.27.15.12,0,.14-.03.14-.14,0-.51,0-1.02,0-1.54Zm.99,13.02s.05,0,.07-.01c.42-.13.76-.38,1.07-.7.66-.68,1.06-1.5,1.39-2.38.05-.12-.03-.11-.1-.12-.77-.09-1.54-.13-2.31-.16-.13,0-.13.06-.13.15,0,.64,0,1.29,0,1.93,0,.42,0,.85,0,1.28Zm-3.22-.39c-.6-.79-1.02-1.66-1.32-2.59-.04-.11-.11-.09-.18-.08-.24.04-.48.08-.71.13-.3.07-.6.14-.92.22.86,1.06,1.89,1.84,3.14,2.31Zm8.55-2.27c-.57-.17-1.12-.28-1.68-.38-.11-.02-.1.06-.12.11-.28.8-.63,1.56-1.12,2.25-.07.09-.13.18-.2.27,1.25-.46,2.27-1.22,3.12-2.26Zm-3.05-11.6s.01.06.02.07c.57.75.97,1.59,1.26,2.48.03.08.06.09.13.07.16-.03.31-.06.47-.09.39-.07.77-.16,1.17-.27-.83-1.02-1.83-1.77-3.06-2.27Zm-8.57,2.23c.52.15,1.02.25,1.53.35.17.03.21-.02.26-.16.27-.82.66-1.6,1.17-2.29.02-.03.06-.05.03-.11-1.18.48-2.17,1.22-2.99,2.21Z"/>
    <g>
      <path class="cls-12" d="m42.52,3.04c.06-.16.1-.34.17-.49.37-.76.99-1.14,1.83-1.14,1.14,0,2.29,0,3.43,0,.15,0,.2-.03.2-.19,0-.77.67-1.24,1.3-1.22,1.01.02,2.02,0,3.03,0,.75,0,1.26.47,1.29,1.22,0,.16.06.19.2.18,1.14,0,2.29,0,3.43,0,.89,0,1.61.5,1.89,1.3.07.2.11.41.11.63,0,2.94,0,5.88,0,8.82,0,1.05-.85,1.91-1.9,1.93-.28,0-.56,0-.84,0-4.03,0-8.06,0-12.08,0-1.12,0-1.9-.76-2.03-1.61,0-.01-.02-.03-.03-.04,0-3.13,0-6.26,0-9.4Zm8.44,9.97c2.14,0,4.28,0,6.41,0,.6,0,.97-.36.97-.94,0-2.89,0-5.78,0-8.67,0-.56-.37-.93-.93-.93-1.15,0-2.31,0-3.46,0-.13,0-.17.03-.18.17-.03.75-.53,1.23-1.28,1.24-1.02,0-2.04,0-3.07,0-.75,0-1.25-.49-1.28-1.24,0-.14-.05-.17-.18-.17-1.14,0-2.29.02-3.43,0-.53,0-.98.37-.97.97.01.69,0,1.38,0,2.08,0,2.18,0,4.36,0,6.54,0,.3.09.55.32.75.19.17.43.21.67.21,2.13,0,4.26,0,6.4,0Zm-.02-10.2c.51,0,1.02,0,1.53,0,.19,0,.24-.04.24-.23,0-.43,0-.86,0-1.28,0-.18-.06-.24-.23-.24-1.01,0-2.02,0-3.03,0-.18,0-.24.06-.24.24,0,.43,0,.86,0,1.28,0,.19.04.23.23.23.5,0,1,0,1.5,0Z"/>
      <path class="cls-12" d="m47.9,9.14c.41.02.92-.04,1.43.03.89.12,1.62.95,1.63,1.84,0,.14,0,.29,0,.43,0,.29-.23.53-.52.53-.29,0-.53-.23-.54-.53,0-.17.01-.34-.02-.51-.09-.42-.39-.7-.83-.71-.63-.02-1.25,0-1.88,0-.22,0-.44,0-.66,0-.48.03-.82.39-.84.87,0,.12,0,.24,0,.36,0,.29-.24.52-.53.52-.28,0-.51-.24-.53-.53-.02-.49.02-.97.3-1.39.38-.58.92-.88,1.61-.91.42-.02.85,0,1.37,0Z"/>
      <path class="cls-12" d="m46.03,6.69c0-.97.79-1.76,1.76-1.76.97,0,1.77.81,1.76,1.77-.01.98-.79,1.75-1.78,1.75-.96,0-1.74-.8-1.74-1.76Zm1.76-.69c-.39,0-.69.31-.69.7,0,.38.31.69.69.7.38,0,.7-.31.7-.7,0-.39-.31-.7-.7-.7Z"/>
      <path class="cls-12" d="m54.82,6.34c-.63,0-1.26,0-1.9,0-.32,0-.56-.22-.56-.52,0-.31.23-.53.56-.53,1.27,0,2.54,0,3.81,0,.32,0,.55.22.56.52,0,.31-.23.53-.56.53-.64,0-1.27,0-1.91,0Z"/>
      <path class="cls-12" d="m54.82,11.97c-.63,0-1.26,0-1.9,0-.23,0-.41-.1-.5-.31-.09-.19-.07-.37.05-.54.13-.17.31-.22.51-.22.68,0,1.35,0,2.03,0,.57,0,1.14,0,1.71,0,.43,0,.7.39.53.75-.1.22-.29.32-.53.32-.63,0-1.26,0-1.9,0Z"/>
      <path class="cls-12" d="m54.83,8.09c.64,0,1.27,0,1.91,0,.26,0,.48.17.53.41.05.22-.05.46-.25.58-.09.05-.18.07-.28.07-1.28,0-2.56,0-3.84,0-.26,0-.45-.15-.52-.36-.07-.21,0-.45.18-.59.11-.09.24-.12.39-.12.63,0,1.25,0,1.88,0Z"/>
    </g>
    <path class="cls-11" d="m42.29,27.2c0-.81.31-1.46.98-1.92.76-.52,1.54-1.04,2.31-1.55.75-.49,1.67-.26,2.08.54.64,1.22,1.26,2.44,1.89,3.66.34.66.17,1.36-.42,1.81-.24.18-.49.36-.74.54-.18.14-.2.2-.09.39,1.02,1.73,2.4,3.1,4.12,4.13.16.1.28.07.38-.08.18-.25.36-.49.54-.74.44-.59,1.15-.77,1.81-.44,1.24.63,2.47,1.27,3.7,1.92.77.41,1,1.3.53,2.03-.51.79-1.03,1.58-1.57,2.36-.55.78-1.33,1.02-2.25.95-2.43-.18-4.54-1.19-6.47-2.58-2.42-1.74-4.33-3.93-5.65-6.62-.52-1.05-.91-2.15-1.06-3.32-.05-.36-.09-.72-.09-1.08Zm10.19,8.84c-.16,0-.41-.08-.64-.22-1.92-1.14-3.45-2.66-4.58-4.58-.4-.69-.25-1.44.39-1.92.23-.17.47-.35.71-.52.15-.1.18-.22.1-.38-.62-1.19-1.23-2.38-1.85-3.57-.1-.2-.2-.22-.39-.1-.76.51-1.52,1.01-2.28,1.52-.32.22-.47.54-.45.93.06,1.07.28,2.1.69,3.09.7,1.7,1.72,3.21,2.96,4.56,1.47,1.6,3.16,2.92,5.14,3.84,1.15.53,2.34.86,3.6.92.4.02.73-.12.95-.45.51-.75,1.01-1.51,1.5-2.27.13-.2.09-.32-.12-.44-1.19-.62-2.37-1.23-3.56-1.84-.16-.08-.27-.05-.37.09-.17.24-.35.48-.53.72-.29.39-.67.6-1.28.61Z"/>
    <g>
      <polygon class="cls-4" points="85.93 122.75 75.52 124.01 92.42 126.32 85.93 122.75"/>
      <polygon class="cls-10" points="0 118.68 0 128.15 36.72 123.7 0 118.68"/>
      <polygon class="cls-6" points="162.03 113.54 94.65 121.69 106.57 128.26 200.33 141.09 162.03 113.54"/>
      <polygon class="cls-9" points="169.66 112.62 211.34 142.6 259.71 149.22 259.71 101.72 169.66 112.62"/>
      <polygon class="cls-5" points="104.53 132.99 56.09 126.36 0 133.14 0 153.14 141.12 153.14 104.53 132.99"/>
      <polygon class="cls-7" points="219.94 148.78 225.99 153.14 251.73 153.14 219.94 148.78"/>
      <polygon class="cls-8" points="217.07 153.14 208.93 147.28 118.67 134.92 151.75 153.14 217.07 153.14"/>
    </g>
  </g>
</svg>