<?xml version="1.0" encoding="UTF-8"?>
<svg id="Ebene_2" data-name="Ebene 2" xmlns="http://www.w3.org/2000/svg" viewBox="0 0 262.09 174.25">
  <defs>
    <style>
      .cls-1 {
        letter-spacing: -.04em;
      }

      .cls-2 {
        letter-spacing: -.01em;
      }

      .cls-3 {
        fill: #1d1d1b;
        font-family: Helvetica, Helvetica;
        font-size: 8px;
      }

      .cls-4 {
        font-family: Rockwell-Bold, Rockwell;
        font-size: 12px;
      }

      .cls-4, .cls-5 {
        font-weight: 700;
      }

      .cls-4, .cls-6 {
        fill: #8e6538;
      }

      .cls-5 {
        font-family: Helvetica-Bold, Helvetica;
        font-size: 10px;
      }

      .cls-5, .cls-7 {
        fill: #fff;
      }

      .cls-8 {
        letter-spacing: -.11em;
      }

      .cls-9 {
        letter-spacing: -.02em;
      }

      .cls-10 {
        letter-spacing: -.03em;
      }

      .cls-6, .cls-7, .cls-11 {
        stroke-width: 0px;
      }

      .cls-11 {
        fill: #fdc800;
      }
    </style>
  </defs>
  <g id="Ebene_1-2" data-name="Ebene 1">
    <rect class="cls-7" width="258.05" height="174.25"/>
    <path class="cls-11" d="m246.34,133.59c-2.86-2.6-6.08-4.85-9.65-6.75-.31-.1-.59-.23-.84-.38-.26-.15-.54-.32-.84-.53-.31-.2-.61-.38-.92-.53-.31-.15-.56-.32-.77-.52-1.12-.7-1.94-1.35-2.45-1.95-.51-.6-.77-1.05-.77-1.35,0-.7.51-1.22,1.53-1.58,1.02-.35,2.14-.57,3.37-.68h27.09v-21.31l-43.63.15c-1.12,0-2.37.13-3.75.38-1.38.25-2.78.63-4.21,1.13-2.86,1.1-5.51,2.9-7.96,5.4-2.45,2.5-3.67,5.9-3.67,10.2,0,5.8,1.48,10.25,4.44,13.35,2.96,3.1,6.89,5.45,11.79,7.05.61.2,1.17.45,1.68.75.51.3,1.02.55,1.53.75.92.7,1.63,1.33,2.14,1.88.51.55.77,1.03.77,1.43s-.33.78-1,1.13c-.67.35-1.61.48-2.83.38h-88.71v.1l-74.88.1c-5.79,0-10.27-1.72-13.43-5.16-3.16-3.44-4.88-7.22-5.14-11.33v-1.39c.09-4.11,1.62-7.87,4.61-11.27,2.98-3.4,7.33-5.14,13.03-5.23h10.42v-23.67l-12.43.13c-13.98,0-24.58,4.1-31.8,12.3-7.21,8.2-11,17.26-11.36,27.18v1.39c0,9.84,3.47,18.85,10.42,27.05,6.95,8.2,17.24,13.45,30.86,13.36h97.38s0-.12,0-.12l83.27.12c8.17,0,13.83-1.75,17-5.25,3.16-3.5,4.75-8.15,4.75-13.95-.51-5.9-2.2-10.15-5.05-12.75Z"/>
    <text transform="translate(73.98 71.35)"><tspan class="cls-4"><tspan class="cls-9" x="0" y="0">M</tspan><tspan x="13.28" y="0">ax </tspan><tspan class="cls-10" x="31.19" y="0">M</tspan><tspan x="44.34" y="0">u</tspan><tspan class="cls-2" x="52.42" y="0">ste</tspan><tspan x="70.25" y="0">r</tspan><tspan class="cls-9" x="76.15" y="0">m</tspan><tspan x="88.8" y="0">ann</tspan></tspan><tspan class="cls-3"><tspan class="cls-8" x="0" y="21.6">T</tspan><tspan x="4" y="21.6">el.: 0123 / 456 789</tspan></tspan><tspan class="cls-3"><tspan x="0" y="31.2">mustermann@cafedelsol.de</tspan></tspan></text>
    <text class="cls-5" transform="translate(74.1 157.14)"><tspan x="0" y="0">ww</tspan><tspan class="cls-1" x="15.56" y="0">w</tspan><tspan x="22.97" y="0">.cafedelsol.de</tspan></text>
    <path class="cls-6" d="m41.76,28.47v3.51c-.07.03-.14.04-.22.04h-.22c-.13.01-.26.02-.38.03-.12,0-.23,0-.34,0-1.33,0-2.44-.41-3.33-1.23-.88-.82-1.33-1.94-1.33-3.37,0-1.54.49-2.71,1.47-3.5.98-.79,2.15-1.18,3.51-1.18,1.52,0,2.7.46,3.55,1.38.84.92,1.34,1.93,1.49,3.04.03.12.04.24.05.36,0,.12,0,.24,0,.36v4.06h-3.68v-4.54c0-.42-.13-.74-.4-.95-.26-.21-.56-.33-.89-.36h-.16c-.32.01-.61.12-.87.33-.26.2-.4.49-.4.86,0,.41.11.75.34,1.03.22.28.51.42.85.42.09,0,.19-.01.3-.04.11-.03.21-.06.32-.1.07-.01.13-.03.18-.06.05-.03.11-.05.16-.08v-.02Z"/>
    <path class="cls-6" d="m47.03,22.77c0-1.12.33-1.99.99-2.59.66-.61,1.41-.91,2.26-.91l2.55-.02v2.95h-1.27c-.26.01-.46.07-.58.17-.13.1-.21.21-.25.33-.01.04-.02.08-.03.12,0,.04,0,.08,0,.12l2.14-.02v3.27h-2.14v5.8h-3.66v-9.21Z"/>
    <path class="cls-6" d="m63.33,26.17l-4.54,2.57-1.03-1.86,1.72-.99c-.08-.07-.17-.13-.27-.2-.1-.07-.2-.11-.31-.14-.04-.01-.08-.02-.12-.03-.04,0-.08,0-.12,0-.03,0-.06,0-.09,0-.03,0-.07,0-.11,0-.32.07-.61.27-.87.6-.26.34-.4.73-.4,1.18,0,.61.17,1.09.51,1.44.34.35.75.52,1.24.52.18,0,.38-.03.59-.09.21-.06.42-.14.63-.25.2-.11.39-.23.58-.38.19-.15.37-.32.54-.51l2.02,1.96c-.45.66-1.05,1.18-1.8,1.56-.75.38-1.54.61-2.36.69-.09,0-.18,0-.27,0-.09,0-.18,0-.27,0-1.14,0-2.18-.36-3.14-1.07-.96-.71-1.47-1.86-1.53-3.45,0-.01,0-.03,0-.05,0-.02,0-.04,0-.07s0-.05,0-.07c0-.02,0-.04,0-.05,0-1.36.38-2.42,1.13-3.19.75-.77,1.58-1.25,2.48-1.45.16-.04.32-.07.49-.09.16-.02.33-.03.49-.03,1.41,0,2.48.34,3.21,1.02.73.68,1.27,1.48,1.62,2.39v-.02Z"/>
    <g>
      <path class="cls-11" d="m20.75,49.22h17.68c.24.02.43,0,.56-.08.13-.07.2-.15.2-.23s-.05-.18-.15-.29c-.1-.11-.24-.24-.43-.38-.1-.04-.2-.09-.31-.15-.1-.06-.21-.11-.34-.15-.98-.33-1.76-.8-2.35-1.43-.59-.63-.88-1.54-.88-2.72,0-.87.24-1.57.73-2.08.49-.51,1.02-.87,1.59-1.1.28-.1.56-.18.84-.23.27-.05.52-.08.75-.08l6.1-.03v4.33h-2.81c-.24.02-.47.07-.67.14-.2.07-.31.18-.31.32,0,.06.05.15.15.27.1.12.26.25.49.4.04.04.09.08.15.11.06.03.12.07.18.11.06.04.12.08.17.11.05.03.11.06.17.08.71.39,1.35.84,1.92,1.37.57.53.91,1.39,1.01,2.59,0,1.18-.32,2.13-.95,2.84-.63.71-1.76,1.07-3.39,1.07l-20.12-.03v-4.76Z"/>
      <path class="cls-11" d="m46.44,48.71c0-1.25.44-2.34,1.31-3.27.87-.92,1.95-1.39,3.23-1.39,1.48,0,2.65.47,3.52,1.4.86.93,1.3,1.96,1.32,3.08v.06c0,1.54-.49,2.75-1.48,3.6-.98.86-2.06,1.3-3.24,1.33h-.12c-.21,0-.44-.02-.67-.06-.24-.04-.48-.1-.71-.18-.79-.28-1.52-.79-2.17-1.54-.65-.75-.98-1.76-.98-3.01v-.02Zm3.53,0c0,.37.12.66.35.86.23.2.49.31.76.33h.06c.28,0,.53-.1.76-.31.23-.2.35-.49.35-.86,0-.32-.1-.56-.29-.74-.19-.18-.41-.29-.64-.33-.03-.01-.06-.02-.09-.02h-.15c-.28.01-.53.12-.76.31-.23.19-.35.45-.35.78v-.02Z"/>
      <path class="cls-11" d="m57.05,40.65h3.8v12.6h-3.8v-12.6Z"/>
    </g>
    <g>
      <path class="cls-6" d="m50.91,35c-.09,0-.14.03-.16.08-.02.05-.03.2-.03.43v.31h.37v-.31c0-.22-.01-.36-.03-.42-.02-.06-.07-.09-.14-.09Z"/>
      <path class="cls-6" d="m30.83,33.03c-1.55,0-2.74-.46-3.58-1.38-.84-.92-1.3-1.93-1.37-3.02v-.37c.02-1.1.43-2.1,1.23-3.01.8-.91,1.96-1.37,3.48-1.39h2.78v-6.32l-3.32.03c-3.73,0-6.56,1.09-8.49,3.28-1.93,2.19-2.94,4.61-3.03,7.25v.37c0,2.63.93,5.03,2.78,7.22,1.85,2.19,4.6,3.27,8.24,3.25h34.66v-5.95l-33.37.03Zm12.47,3.99c0,.46-.02.77-.06.92-.04.15-.12.28-.23.36-.11.09-.24.15-.4.18-.16.04-.4.05-.71.05h-1.68v-5.12h1c.64,0,1.08.03,1.3.09.23.06.4.16.52.29.12.13.19.29.22.45.03.17.04.49.04.98v1.79Zm9.06-.5h-1.65v.91c0,.19.01.31.04.37.03.05.08.08.16.08.1,0,.16-.04.19-.11.03-.07.05-.21.05-.42v-.55h1.21v.31c0,.26-.02.46-.05.6-.03.14-.11.29-.23.45s-.27.28-.46.36c-.18.08-.42.12-.69.12s-.51-.04-.71-.12c-.21-.08-.37-.18-.48-.32-.11-.14-.19-.29-.24-.45-.04-.16-.07-.4-.07-.71v-1.22c0-.37.05-.66.15-.87.1-.21.26-.37.49-.49.23-.11.48-.17.78-.17.36,0,.65.07.89.2.23.14.4.32.49.54.09.22.14.54.14.95v.56Zm7.44,2.02h-1.32v-5.12h1.32v5.12Z"/>
      <path class="cls-6" d="m41.85,34.34c-.05-.03-.15-.05-.3-.05v3.37c.19,0,.31-.04.35-.12.04-.08.07-.29.07-.63v-1.99c0-.23,0-.38-.02-.45-.01-.07-.05-.11-.1-.14Z"/>
    </g>
  </g>
</svg>