<?xml version="1.0" encoding="UTF-8"?>
<svg id="Ebene_2" data-name="Ebene 2" xmlns="http://www.w3.org/2000/svg" xmlns:xlink="http://www.w3.org/1999/xlink" viewBox="0 0 258.05 174.86">
  <defs>
    <style>
      .cls-1 {
        fill: url(#Unbenannter_Verlauf_15-3);
      }

      .cls-1, .cls-2, .cls-3, .cls-4, .cls-5, .cls-6, .cls-7, .cls-8, .cls-9, .cls-10, .cls-11 {
        stroke-width: 0px;
      }

      .cls-12 {
        font-family: BrushScriptMT, 'Brush Script MT';
        font-size: 31.71px;
      }

      .cls-12, .cls-9 {
        fill: #1d1d1b;
      }

      .cls-2 {
        fill: url(#Orange_Gelb_Kopie);
      }

      .cls-13 {
        fill: url(#Unbenannter_Verlauf_15-2);
      }

      .cls-13, .cls-14 {
        stroke-width: .72px;
      }

      .cls-13, .cls-14, .cls-15, .cls-16 {
        stroke-miterlimit: 10;
      }

      .cls-13, .cls-16 {
        stroke: #1d1d1b;
      }

      .cls-14 {
        fill: url(#Unbenannter_Verlauf_15);
        stroke: #ffde00;
      }

      .cls-3 {
        fill: url(#Orange_Gelb_Kopie-5);
      }

      .cls-4 {
        fill: url(#Orange_Gelb_Kopie-3);
      }

      .cls-5 {
        fill: url(#Orange_Gelb_Kopie-6);
      }

      .cls-6 {
        fill: url(#Orange_Gelb_Kopie-7);
      }

      .cls-7 {
        fill: url(#Orange_Gelb_Kopie-4);
      }

      .cls-8 {
        fill: url(#Orange_Gelb_Kopie-2);
      }

      .cls-15 {
        fill: url(#Orange_Gelb);
        stroke: #ffed00;
        stroke-width: .36px;
      }

      .cls-17 {
        letter-spacing: -.01em;
      }

      .cls-16 {
        fill: none;
        stroke-width: 2.88px;
      }

      .cls-10 {
        fill: #9c8134;
      }

      .cls-11 {
        fill: #fff;
      }
    </style>
    <radialGradient id="Unbenannter_Verlauf_15" data-name="Unbenannter Verlauf 15" cx="106.02" cy="51.62" fx="106.02" fy="51.62" r="20.47" gradientUnits="userSpaceOnUse">
      <stop offset="0" stop-color="#ffef26"/>
      <stop offset=".02" stop-color="#fee921"/>
      <stop offset=".1" stop-color="#fdd70e"/>
      <stop offset=".19" stop-color="#fdcb03"/>
      <stop offset=".28" stop-color="#fdc800"/>
      <stop offset=".67" stop-color="#f18f34"/>
      <stop offset=".89" stop-color="#e95f32"/>
      <stop offset="1" stop-color="#e3312d"/>
    </radialGradient>
    <linearGradient id="Orange_Gelb" data-name="Orange, Gelb" x1="104.69" y1="78.73" x2="107.35" y2="78.73" gradientUnits="userSpaceOnUse">
      <stop offset="0" stop-color="#ffef26"/>
      <stop offset=".02" stop-color="#fee921"/>
      <stop offset=".1" stop-color="#fdd70e"/>
      <stop offset=".19" stop-color="#fdcb03"/>
      <stop offset=".28" stop-color="#fdc800"/>
      <stop offset=".67" stop-color="#f18f34"/>
      <stop offset=".89" stop-color="#e95f32"/>
      <stop offset="1" stop-color="#e3312d"/>
    </linearGradient>
    <radialGradient id="Unbenannter_Verlauf_15-2" data-name="Unbenannter Verlauf 15" cx="106.02" cy="88.89" fx="106.02" fy="88.89" r="11.88" xlink:href="#Unbenannter_Verlauf_15"/>
    <radialGradient id="Unbenannter_Verlauf_15-3" data-name="Unbenannter Verlauf 15" cx="106.02" cy="85.3" fx="106.02" fy="85.3" r="11.75" xlink:href="#Unbenannter_Verlauf_15"/>
    <linearGradient id="Orange_Gelb_Kopie" data-name="Orange, Gelb Kopie" x1="110.13" y1="72.71" x2="121.38" y2="72.71" gradientTransform="translate(156.41 232.72) rotate(-90)" gradientUnits="userSpaceOnUse">
      <stop offset="0" stop-color="#ffef26"/>
      <stop offset=".02" stop-color="#fee921"/>
      <stop offset=".1" stop-color="#fdd70e"/>
      <stop offset=".19" stop-color="#fdcb03"/>
      <stop offset=".28" stop-color="#fdc800"/>
      <stop offset=".67" stop-color="#f18f34"/>
      <stop offset=".89" stop-color="#e95f32"/>
      <stop offset="1" stop-color="#e3312d"/>
    </linearGradient>
    <linearGradient id="Orange_Gelb_Kopie-2" data-name="Orange, Gelb Kopie" x1="59.87" y1="71.59" x2="84.3" y2="71.59" xlink:href="#Orange_Gelb_Kopie"/>
    <linearGradient id="Orange_Gelb_Kopie-3" data-name="Orange, Gelb Kopie" x1="122.86" y1="75.49" x2="193.2" y2="75.49" xlink:href="#Orange_Gelb_Kopie"/>
    <linearGradient id="Orange_Gelb_Kopie-4" data-name="Orange, Gelb Kopie" x1="172.79" y1="73.64" x2="232.72" y2="73.64" xlink:href="#Orange_Gelb_Kopie"/>
    <linearGradient id="Orange_Gelb_Kopie-5" data-name="Orange, Gelb Kopie" x1="59.87" y1="87.92" x2="153.79" y2="87.92" xlink:href="#Orange_Gelb_Kopie"/>
    <linearGradient id="Orange_Gelb_Kopie-6" data-name="Orange, Gelb Kopie" x1="206.25" y1="99.13" x2="227.41" y2="99.13" xlink:href="#Orange_Gelb_Kopie"/>
    <linearGradient id="Orange_Gelb_Kopie-7" data-name="Orange, Gelb Kopie" x1="138.85" y1="92.2" x2="204.34" y2="92.2" xlink:href="#Orange_Gelb_Kopie"/>
  </defs>
  <g id="Ebene_1-2" data-name="Ebene 1">
    <rect class="cls-11" y=".6" width="258.05" height="174.25"/>
    <line class="cls-10" x1="96.17" y1="49.4" x2="96.19" y2="40.88"/>
    <line class="cls-10" x1="89.34" y1="22.42" x2="86.34" y2="19.4"/>
    <path class="cls-14" d="m92.52,59.71c-2.96-3.24-4.76-7.56-4.76-12.29,0-10.08,8.17-18.26,18.26-18.26s18.26,8.17,18.26,18.26c0,6.83-3.75,12.78-9.3,15.91-1.96,1.61-3.98,3.34-4.73,4.22-2.64,3.1-3.17,4.43-3.17,4.43l-1.05,2.09-1.07-2.09s-.53-1.33-3.17-4.43c-.75-.89-2.79-2.63-4.77-4.25-1.68-.96-3.2-2.17-4.49-3.59"/>
    <path class="cls-9" d="m126.13,53.36v34.48c0,1.8-1.14,3.14-2.09,3.94-1.09.92-2.6,1.72-4.48,2.39-3.64,1.29-8.45,2.01-13.53,2.01s-9.89-.71-13.53-2.01c-1.89-.67-3.39-1.47-4.48-2.39-.96-.8-2.09-2.14-2.09-3.94v-34.48c.76,2.57,2,4.98,3.7,7.1v27.39c0,.56,1.1,1.77,4.12,2.85,3.26,1.16,7.62,1.79,12.29,1.79s9.04-.64,12.29-1.79c3.02-1.07,4.12-2.29,4.12-2.85v-27.39c1.69-2.12,2.94-4.53,3.7-7.1Z"/>
    <circle class="cls-16" cx="133.73" cy="72.91" r="8.3"/>
    <path class="cls-15" d="m104.69,79.42c0-1.03.6-2.91,1.33-2.91s1.33,1.88,1.33,2.91-.6,1.52-1.34,1.52-1.32-.49-1.32-1.52Z"/>
    <path class="cls-13" d="m122.43,85.29v2.55c0,.56-1.1,1.77-4.12,2.85-3.26,1.16-7.62,1.79-12.29,1.79s-9.04-.64-12.29-1.79c-3.02-1.07-4.12-2.29-4.12-2.85v-2.55c0,1.47,7.35,2.66,16.41,2.66s16.41-1.19,16.41-2.66Z"/>
    <path class="cls-1" d="m122.43,85.29c0,1.47-7.35,2.66-16.41,2.66s-16.41-1.19-16.41-2.66,7.35-2.66,16.41-2.66,16.41,1.19,16.41,2.66Z"/>
    <text class="cls-12" transform="translate(38.28 126.44)"><tspan x="0" y="0">Ca</tspan><tspan class="cls-17" x="32.02" y="0">f</tspan><tspan x="40.2" y="0">e Del Sol</tspan></text>
    <g>
      <polygon class="cls-2" points="227.33 115.66 228.59 122.59 230.91 111.34 227.33 115.66"/>
      <polygon class="cls-8" points="223.26 172.85 232.73 172.85 228.29 148.42 223.26 172.85"/>
      <polygon class="cls-4" points="218.13 65.01 226.28 109.86 232.84 101.93 245.67 39.52 218.13 65.01"/>
      <polygon class="cls-7" points="217.2 59.93 247.18 32.2 253.8 0 206.31 0 217.2 59.93"/>
      <polygon class="cls-3" points="237.57 103.28 230.94 135.52 237.73 172.85 257.72 172.85 257.72 78.93 237.57 103.28"/>
      <polygon class="cls-5" points="253.37 26.47 257.72 22.45 257.72 5.31 253.37 26.47"/>
      <polygon class="cls-6" points="257.72 28.38 251.86 33.8 239.51 93.87 257.72 71.86 257.72 28.38"/>
    </g>
  </g>
</svg>