<?xml version="1.0" encoding="UTF-8"?>
<svg id="Ebene_2" data-name="Ebene 2" xmlns="http://www.w3.org/2000/svg" viewBox="0 0 427.75 1085.1">
  <defs>
    <style>
      .cls-1 {
        stroke: #2d1700;
      }

      .cls-1, .cls-2, .cls-3, .cls-4, .cls-5, .cls-6, .cls-7, .cls-8, .cls-9, .cls-10, .cls-11, .cls-12 {
        fill: none;
        stroke-dasharray: 0 0 0 0 0 0 1 10 1 10 1 10;
        stroke-linecap: round;
        stroke-miterlimit: 10;
        stroke-width: 5px;
      }

      .cls-2 {
        stroke: #9c4f00;
      }

      .cls-3 {
        stroke: #6f3800;
      }

      .cls-4 {
        stroke: #f57c00;
      }

      .cls-5 {
        stroke: #592d00;
      }

      .cls-6 {
        stroke: #b25a00;
      }

      .cls-7 {
        stroke: #df7100;
      }

      .cls-8 {
        stroke: #c86500;
      }

      .cls-9 {
        stroke: #864400;
      }

      .cls-10 {
        stroke: #000;
      }

      .cls-11 {
        stroke: #160b00;
      }

      .cls-12 {
        stroke: #432200;
      }
    </style>
  </defs>
  <g id="Ebene_1-2" data-name="Ebene 1">
    <g>
      <path class="cls-10" d="m2.84,9.84S-1,120.32,17.12,199.13c18.12,78.81,139.51,239.29,129.85,324.46-9.66,85.17-139.3,155.51-104.27,243.22,35.03,87.71,73.38,207.2,48.16,247.88-25.21,40.68-33.18,67.89-33.18,67.89"/>
      <path class="cls-11" d="m18.18,9.84s-7.88,106.74,10.24,185.55c18.12,78.81,118.07,235.72,108.41,320.89-9.66,85.17-116.66,162.83-81.64,250.54,35.03,87.71,68.28,206.89,43.06,247.57-25.21,40.68-28.07,68.21-28.07,68.21"/>
      <path class="cls-1" d="m33.87,9.84s-11.92,102.99,6.2,181.8c18.12,78.81,96.63,232.15,86.97,317.32-9.66,85.17-94.03,170.15-59,257.86,35.03,87.71,63.17,206.58,37.96,247.26-25.21,40.68-22.97,68.52-22.97,68.52"/>
      <path class="cls-12" d="m46.74,9.83s-15.96,99.24,2.16,178.06c18.12,78.81,75.19,228.58,65.53,313.75-9.66,85.17-71.39,177.47-36.36,265.18,35.03,87.71,58.07,206.27,32.86,246.94-25.21,40.68-17.86,68.83-17.86,68.83"/>
      <path class="cls-5" d="m53.6,9.83s-20.01,95.5-1.89,174.31c18.12,78.81,53.75,225.01,44.09,310.18-9.66,85.17-48.76,184.78-13.73,272.5,35.03,87.71,52.97,205.95,27.76,246.63-25.21,40.68-12.76,69.15-12.76,69.15"/>
      <path class="cls-3" d="m60.46,9.83s-24.05,91.75-5.93,170.56c18.12,78.81,32.3,221.44,22.65,306.61-9.66,85.17-26.12,192.1,8.91,279.81,35.03,87.71,47.87,205.64,22.66,246.32-25.21,40.68-7.66,69.46-7.66,69.46"/>
      <path class="cls-9" d="m67.27,9.83s-28.09,88-9.97,166.82c18.12,78.81,10.86,217.87,1.21,303.04-9.66,85.17-3.49,199.42,31.54,287.13,35.03,87.71,42.77,205.33,17.56,246.01s-2.55,69.77-2.55,69.77"/>
      <path class="cls-2" d="m82.29,9.83s-32.13,84.26-14.01,163.07c18.12,78.81-10.58,214.3-20.23,299.47-9.66,85.17,19.15,206.74,54.18,294.45,35.03,87.71,37.67,205.01,12.46,245.69-25.21,40.68,2.55,70.09,2.55,70.09"/>
      <path class="cls-6" d="m99.5,9.83s-36.17,80.51-18.05,159.32c18.12,78.81-32.02,210.73-41.67,295.9-9.65,85.17,41.78,214.06,76.82,301.77,35.03,87.71,32.57,204.7,7.36,245.38-25.21,40.68,7.66,70.4,7.66,70.4"/>
      <path class="cls-8" d="m116.74,9.83s-40.22,76.76-22.09,155.58c18.13,78.81-53.46,207.15-63.12,292.33-9.65,85.17,64.42,221.38,99.45,309.09,35.03,87.71,27.47,204.39,2.26,245.07-25.21,40.68,12.76,70.71,12.76,70.71"/>
      <path class="cls-7" d="m133.89,9.83s-44.26,73.02-26.13,151.83c18.13,78.81-74.9,203.58-84.56,288.76-9.65,85.17,87.05,228.7,122.09,316.41,35.04,87.71,22.36,204.07-2.84,244.75-25.21,40.68,17.87,71.03,17.87,71.03"/>
      <path class="cls-4" d="m139.32,10.12s-47.07,70.11-27.56,148.59c19.51,78.48-92.8,201.68-100.95,287.01-8.15,85.33,113.84,234.04,150.41,321.12,36.58,87.08,20.86,203.42-3.63,244.54-24.49,41.12,24.23,70.92,24.23,70.92"/>
      <path class="cls-7" d="m133.25,9.92s-32.58,77.75-11.69,155.87c20.89,78.13-92.19,202.5-98.83,287.96-6.64,85.46,127.12,225.59,165.23,312.01,38.11,86.42,14.05,203.3-9.71,244.84-23.76,41.54,16.4,70.59,16.4,70.59"/>
      <path class="cls-8" d="m138.39,9.27s-19.34,84.57,1.55,162.69c20.89,78.13-95.15,201.72-101.8,287.18-6.64,85.46,136.29,219.17,174.39,305.59,38.11,86.42,3.66,203.57-20.1,245.12-23.76,41.54,7.32,70.69,7.32,70.69"/>
      <path class="cls-6" d="m143.19,8.61s-6.1,91.38,14.8,169.51c20.89,78.13-98.12,200.94-104.76,286.4-6.65,85.46,145.46,212.76,183.56,299.18,38.1,86.42-6.74,203.85-30.5,245.39-23.76,41.54-1.75,70.8-1.75,70.8"/>
      <path class="cls-2" d="m147.74,7.96s7.15,98.2,28.04,176.33c20.89,78.13-101.08,200.15-107.73,285.61-6.65,85.46,154.63,206.35,192.73,292.77,38.1,86.42-17.13,204.12-40.89,245.66-23.76,41.54-10.83,70.9-10.83,70.9"/>
      <path class="cls-9" d="m152.12,7.3s20.39,105.02,41.28,183.15c20.89,78.13-104.04,199.37-110.69,284.83-6.65,85.46,163.8,199.94,201.9,286.36,38.1,86.42-27.53,204.4-51.29,245.94-23.76,41.54-19.91,71-19.91,71"/>
      <path class="cls-3" d="m156.37,6.64s33.64,111.84,54.52,189.97c20.89,78.13-107.01,198.59-113.66,284.05-6.65,85.46,172.97,193.53,211.07,279.95,38.1,86.42-37.92,204.67-61.68,246.21-23.76,41.54-28.98,71.11-28.98,71.11"/>
      <path class="cls-5" d="m160.52,5.99s46.88,118.66,67.76,196.78c20.88,78.13-109.97,197.8-116.62,283.26-6.65,85.46,182.14,187.12,220.23,273.54s-48.31,204.94-72.08,246.49c-23.76,41.54-38.06,71.21-38.06,71.21"/>
      <path class="cls-12" d="m164.6,5.33s60.12,125.47,81.01,203.6c20.88,78.13-112.93,197.02-119.59,282.48-6.66,85.46,191.31,180.7,229.4,267.13,38.09,86.43-58.71,205.22-82.47,246.76-23.77,41.54-47.14,71.31-47.14,71.31"/>
      <path class="cls-1" d="m168.61,4.68s73.37,132.29,94.25,210.42c20.88,78.13-115.89,196.24-122.55,281.69-6.66,85.46,200.48,174.29,238.57,260.72,38.09,86.43-69.1,205.49-92.87,247.03-23.77,41.54-56.21,71.42-56.21,71.42"/>
      <path class="cls-11" d="m172.59,4.02s86.61,139.11,107.49,217.24c20.88,78.13-118.86,195.45-125.52,280.91-6.66,85.46,209.65,167.88,247.74,254.31,38.09,86.43-79.49,205.77-103.26,247.31-23.77,41.54-65.29,71.52-65.29,71.52"/>
      <path class="cls-10" d="m390.42,1075.52s-92-151.01-108.71-230.13c-16.71-79.12,131.95-187.95,143.12-272.94,11.17-84.99-209.97-172.82-243.43-261.14-33.46-88.32,100.66-201,126.6-241.22C333.94,29.87,386.05,2.5,386.05,2.5"/>
      <path class="cls-11" d="m208.63,2.62s69.72,149.98,87.82,228.79c18.11,78.82-96.31,189.44-105.99,274.61-9.67,85.17,180.93,169.43,215.95,257.15,35.02,87.72-76.38,202.68-101.6,243.36-25.22,40.68-72.88,68.86-72.88,68.86"/>
      <path class="cls-1" d="m217.69,2.62s44.79,150.59,62.9,229.41c18.11,78.82-64.02,188.63-73.69,273.8-9.67,85.17,148.88,169.78,183.9,257.5,35.02,87.72-55.66,202.63-80.88,243.3-25.22,40.68-68.91,68.76-68.91,68.76"/>
      <path class="cls-12" d="m226.53,2.63s19.86,151.21,37.97,230.02c18.11,78.82-31.72,187.82-41.39,272.99-9.67,85.17,116.83,170.12,151.85,257.84,35.02,87.72-34.94,202.57-60.16,243.25-25.22,40.68-64.94,68.67-64.94,68.67"/>
      <path class="cls-5" d="m236.92,2.63s-5.07,151.82,13.04,230.64c18.11,78.82.58,187.02-9.09,272.19-9.67,85.17,84.78,170.47,119.8,258.18,35.02,87.72-14.22,202.51-39.44,243.19-25.22,40.68-60.97,68.57-60.97,68.57"/>
      <path class="cls-3" d="m256.68,2.63s-30,152.44-11.88,231.25c18.11,78.82,32.88,186.21,23.21,271.38s52.73,170.81,87.75,258.53c35.02,87.71,6.5,202.46-18.72,243.14-25.22,40.68-57,68.47-57,68.47"/>
      <path class="cls-9" d="m277.71,2.63s-54.92,153.05-36.81,231.87c18.11,78.82,65.18,185.4,55.51,270.57-9.67,85.17,20.68,171.16,55.7,258.87,35.02,87.71,27.22,202.4,2.01,243.08-25.22,40.68-53.03,68.38-53.03,68.38"/>
      <path class="cls-2" d="m296.87,2.63s-79.85,153.67-61.74,232.48c18.11,78.82,97.47,184.59,87.81,269.76-9.67,85.17-11.37,171.5,23.65,259.22,35.02,87.71,47.94,202.35,22.73,243.02-25.22,40.68-49.06,68.28-49.06,68.28"/>
      <path class="cls-6" d="m314.19,2.63s-104.78,154.28-86.67,233.1c18.11,78.81,129.77,183.78,120.11,268.95-9.67,85.17-43.42,171.85-8.4,259.56,35.02,87.71,68.66,202.29,43.45,242.97-25.22,40.68-45.09,68.18-45.09,68.18"/>
      <path class="cls-8" d="m330.58,2.63s-129.71,154.9-111.59,233.71c18.12,78.81,162.07,182.97,152.41,268.14-9.66,85.17-75.48,172.19-40.45,259.91,35.02,87.71,89.38,202.23,64.17,242.91-25.22,40.68-41.12,68.09-41.12,68.09"/>
      <path class="cls-7" d="m346.55,2.63s-154.64,155.51-136.52,234.33c18.12,78.81,194.37,182.17,184.71,267.34-9.66,85.17-107.53,172.54-72.5,260.25,35.02,87.71,110.1,202.18,84.89,242.85-25.22,40.68-37.15,67.99-37.15,67.99"/>
      <path class="cls-4" d="m362.32,2.63s-179.56,156.13-161.45,234.94c18.12,78.81,226.67,181.36,217.01,266.53-9.66,85.17-139.58,172.88-104.55,260.59,35.03,87.71,130.82,202.12,105.61,242.8-25.21,40.68-33.18,67.89-33.18,67.89"/>
    </g>
  </g>
</svg>